<svg width="127" height="197" viewBox="0 0 127 197" fill="none" xmlns="http://www.w3.org/2000/svg">
<path d="M158.602 111.161C158.602 88.9842 123.406 71.001 80 71.001C36.5937 71.001 1.4714 88.9842 1.4714 111.161V155.457C1.47511 156.994 1.64279 158.526 1.97168 160.029C6.38587 180.065 39.6984 195.617 80.0736 195.617C120.449 195.617 153.717 180.065 158.161 160.029C158.501 158.528 158.674 156.995 158.676 155.457V111.161H158.602Z" fill="#FFD087"/>
<path d="M80 197C39.3452 197 5.17933 181.23 0.544417 160.335C0.180177 158.734 -0.00242545 157.098 -9.67915e-07 155.457V111.161C-9.67915e-07 88.2561 35.8874 69.6176 80 69.6176C124.113 69.6176 160 88.2561 160 111.161V155.457C160.002 157.098 159.82 158.734 159.456 160.335C154.821 181.23 120.655 197 80 197ZM80 72.3843C37.4324 72.3843 2.79566 89.785 2.79566 111.161V155.457C2.79866 156.896 2.9565 158.331 3.26651 159.738C7.68071 179.395 40.6253 194.233 80 194.233C119.375 194.233 152.363 179.395 156.719 159.738C157.041 158.333 157.204 156.897 157.204 155.457V111.161C157.204 89.785 122.568 72.3843 80 72.3843Z" fill="#7B413B"/>
<path d="M158.352 111.161C158.352 119.781 158.352 128.416 158.514 137.037C158.514 144.142 159.603 152.603 151.966 156.709C151.598 156.913 151.193 157.041 150.774 157.087C144.271 157.728 143.417 146.079 135.575 152.239C131.249 155.646 129.91 161.689 126.864 166.043C124.166 170.266 120.206 173.554 115.534 175.449C104.587 179.352 98.0835 170.426 88.8873 166.858C86.0949 165.668 82.9662 165.498 80.0589 166.378C76.4245 167.674 73.9673 170.979 70.8626 173.25C62.8876 179.075 51.7344 176.702 45.275 169.887C42.0526 166.509 38.7714 162.606 34.21 161.601C28.2362 160.145 22.3064 163.334 16.3178 161.412C10.3292 159.49 5.65017 154.263 2.9428 148.744C2.45724 147.768 2.03053 146.778 1.63325 145.759V111.161C1.64797 88.9842 36.785 71.001 80 71.001C123.215 71.001 158.352 88.9842 158.352 111.161Z" fill="white"/>
<path d="M157.44 111.161C157.44 121.5 157.705 131.838 157.675 142.177C157.675 145.773 157.41 149.676 155.233 152.719C154.1 154.321 151.951 156.389 149.818 156.17C148.578 155.932 147.455 155.292 146.625 154.35C145.051 152.894 143.77 150.841 141.696 149.982C139.283 148.904 136.825 150.083 134.927 151.612C131.602 154.277 130.013 158.296 128.159 161.965C126.208 166.044 123.278 169.588 119.625 172.289C117.867 173.623 115.843 174.572 113.687 175.074C111.531 175.576 109.292 175.619 107.118 175.202C103.219 174.313 99.8492 171.984 96.5091 169.916C93.169 167.848 89.4464 165.548 85.3853 165.067C80.9711 164.499 77.5722 166.261 74.4087 169.028C70.8479 172.158 67.5961 174.969 62.6375 175.551C58.4757 175.985 54.283 175.086 50.675 172.988C46.8641 170.819 44.3921 167.28 41.1256 164.47C39.5496 163.03 37.6918 161.925 35.6671 161.224C33.6424 160.523 31.4939 160.24 29.3544 160.393C24.0868 160.684 19.1576 162.126 14.1696 159.621C10.1808 157.465 6.90189 154.22 4.72319 150.273C3.48928 148.612 2.7226 146.658 2.50138 144.608V139.148C2.50138 129.984 2.50138 120.82 2.50138 111.656C2.50138 100.473 10.9031 92.0421 19.908 86.4359C34.622 77.2914 52.5437 73.4181 69.6561 72.2678C88.284 71.0155 107.574 72.9085 125.172 79.3591C137.076 83.7275 151.083 91.1247 155.895 103.589C156.835 106.007 157.333 108.571 157.366 111.161C157.395 111.386 157.506 111.593 157.678 111.744C157.85 111.894 158.071 111.977 158.301 111.977C158.53 111.977 158.751 111.894 158.923 111.744C159.096 111.593 159.206 111.386 159.235 111.161C159.132 98.4199 148.523 88.9987 138.12 83.2033C122.347 74.4665 103.675 70.8699 85.7532 70.1855C66.8163 69.4866 47.1731 71.9474 29.6634 79.3737C18.1276 84.2663 4.97333 92.4935 1.4714 105.337C0.759205 108.621 0.492007 111.986 0.676843 115.34V144.827C0.676843 147.084 2.04524 149.195 3.16351 151.146C5.25241 154.858 8.22158 158.011 11.8153 160.335C16.2295 163.101 20.8203 163.16 25.8966 162.533C28.3246 162.097 30.806 162.033 33.2536 162.344C35.8658 162.93 38.2609 164.226 40.1692 166.086C43.4946 169.086 46.0548 172.61 50.1306 174.823C53.6203 176.736 57.578 177.654 61.5634 177.473C65.6995 177.209 69.6334 175.607 72.7607 172.916C74.394 171.547 75.8507 170.003 77.6016 168.751C78.8126 167.885 80.1965 167.285 81.6606 166.992C83.1248 166.698 84.6355 166.717 86.0916 167.047C94.199 168.751 99.8345 176.192 108.163 177.24C117.079 178.376 124.922 171.605 128.909 164.31C131.087 160.349 132.544 155.573 136.266 152.763C138.885 150.826 140.901 151.307 143.035 153.491C144.712 155.238 146.287 157.335 148.788 157.859C152.113 158.646 155.247 155.821 156.91 153.243C158.676 150.072 159.522 146.479 159.353 142.861C159.353 138.041 159.22 133.207 159.191 128.387C159.191 122.631 159.191 116.879 159.191 111.132C159.118 110.959 158.995 110.812 158.837 110.71C158.679 110.608 158.494 110.554 158.305 110.558C158.116 110.561 157.933 110.62 157.779 110.728C157.624 110.835 157.506 110.986 157.44 111.161Z" fill="#7B413B"/>
<path d="M80 152.413C36.0493 152.413 0.294279 133.964 0.294279 111.161H2.50138C2.50138 132.712 37.2706 150.229 80 150.229C122.729 150.229 157.44 132.712 157.44 111.161H159.647C159.706 133.964 123.951 152.413 80 152.413Z" fill="#7B413B"/>
<path d="M17.2007 70.8553C17.2007 53.1342 45.3191 38.8205 80 38.8205C114.681 38.8205 142.799 53.1925 142.799 70.8553V106.298C142.8 107.531 142.667 108.761 142.402 109.967C138.841 125.897 112.268 138.332 80 138.332C47.7322 138.332 21.1587 125.897 17.6568 109.909C17.3767 108.724 17.2238 107.514 17.2007 106.298V70.8699V70.8553Z" fill="#FFD087"/>
<path d="M80 139.789C47.3791 139.789 19.9669 127.033 16.1854 110.2C15.9227 108.916 15.7945 107.608 15.8028 106.298V70.8554C15.8028 52.3916 44.5981 37.3643 80 37.3643C115.402 37.3643 144.197 52.4207 144.197 70.8554V106.298C144.195 107.629 144.052 108.956 143.77 110.258C140.033 127.033 112.621 139.789 80 139.789ZM80 40.2329C46.1578 40.2329 18.5985 53.9934 18.5985 70.9282V106.298C18.5956 107.429 18.719 108.557 18.9663 109.661C22.4241 125.227 48.6592 136.949 80 136.949C111.341 136.949 137.576 125.227 141.034 109.603C141.27 108.516 141.393 107.409 141.401 106.298V70.8554C141.401 53.8769 113.857 40.1601 80 40.1601V40.2329Z" fill="#7B413B"/>
<path d="M17.3919 70.8554C17.3919 77.7429 17.3919 84.6304 17.2595 91.5179C17.2595 97.2113 16.3914 103.953 22.4977 107.244C22.7916 107.411 23.1173 107.515 23.4541 107.55C28.6481 108.06 29.3397 98.8131 35.5932 103.677C39.0509 106.4 40.1251 111.219 42.5529 114.699C44.7107 118.074 47.872 120.704 51.602 122.228C60.4304 125.344 65.5509 118.209 72.8931 115.355C75.1311 114.43 77.627 114.317 79.9411 115.034C82.8839 116.068 84.7968 118.704 87.2981 120.509C93.6693 125.154 102.557 123.276 107.751 117.83C110.326 115.136 112.945 112.078 116.579 111.205C121.346 110.069 126.084 112.661 130.866 111.059C135.648 109.457 139.386 105.351 141.549 100.866C141.946 100.094 142.284 99.2936 142.608 98.4782V70.8117C142.608 53.0906 114.651 38.7768 80 38.7768C45.3485 38.7768 17.3919 53.1342 17.3919 70.8554Z" fill="white"/>
<path d="M16.465 70.8554C16.465 79.432 16.053 88.0523 16.2737 96.6143C16.1867 99.4306 16.8841 102.216 18.2895 104.667C19.6138 106.676 22.0416 108.86 24.6459 108.424C26.647 108.089 27.9713 106.545 29.2809 105.147C30.973 103.313 32.4591 102.526 34.725 104.172C37.6678 106.341 38.8744 109.996 40.5371 113.171C42.1494 116.182 44.4096 118.806 47.1584 120.859C49.896 122.964 53.3033 124.033 56.7666 123.873C59.7695 123.495 62.6389 122.417 65.1389 120.728C68.0817 118.951 71.0245 116.753 74.394 115.821C75.4722 115.49 76.6069 115.379 77.7297 115.494C78.8526 115.609 79.9402 115.948 80.927 116.491C82.5153 117.553 83.9938 118.767 85.3412 120.116C87.8226 122.238 90.8994 123.558 94.16 123.902C97.4206 124.245 100.709 123.595 103.587 122.038C106.824 120.364 108.928 117.67 111.547 115.209C112.866 113.855 114.468 112.801 116.241 112.122C118.373 111.615 120.591 111.565 122.744 111.977C126.702 112.442 130.263 112.603 133.853 110.622C136.909 108.826 139.444 106.278 141.21 103.225C142.405 101.646 143.174 99.7918 143.447 97.8375C143.447 96.5124 143.447 95.1727 143.447 93.8477C143.447 86.2175 143.447 78.602 143.447 70.9864C143.447 61.5507 136.34 54.3428 128.733 49.6104C116.756 42.2278 102.056 39.0243 88.0191 38.107C72.54 37.0877 56.3693 38.7622 41.8613 44.4266C32.1942 48.1979 21.3794 54.3865 17.6568 64.5794C16.914 66.5905 16.5306 68.7142 16.5238 70.8554C16.5238 71.0986 16.6215 71.332 16.7953 71.504C16.9692 71.6761 17.2049 71.7727 17.4508 71.7727C17.6966 71.7727 17.9324 71.6761 18.1063 71.504C18.2801 71.332 18.3778 71.0986 18.3778 70.8554C18.4808 60.6624 27.5446 53.5128 35.8286 49.1881C48.4826 42.5773 63.2702 40.0145 77.4545 39.7233C92.0213 39.4175 107.162 41.4415 120.537 47.3825C129.365 51.2849 139.562 57.823 141.475 67.9576C141.775 70.3725 141.859 72.8089 141.725 75.2383V87.8484C141.725 91.1247 141.902 94.4301 141.725 97.7064C141.352 99.7317 140.466 101.63 139.15 103.225C137.171 106.367 134.188 108.765 130.675 110.04C126.658 111.292 122.568 109.603 118.507 109.88C115.292 110.193 112.304 111.659 110.105 114.001C107.559 116.403 105.499 119.024 102.248 120.568C99.0295 122.144 95.34 122.501 91.8742 121.572C88.3723 120.582 86.2093 117.976 83.4431 115.835C82.1351 114.782 80.5856 114.062 78.9308 113.74C77.276 113.417 75.5665 113.502 73.9525 113.986C68.0669 115.617 63.6528 120.961 57.517 121.878C49.7627 123.043 44.1273 116.17 41.1403 110.04C39.4777 106.618 35.6226 99.2353 30.561 101.653C28.8983 102.453 27.883 104.084 26.5588 105.307C25.9263 105.993 25.0737 106.44 24.1457 106.574C22.483 106.676 20.8056 104.929 19.9669 103.662C18.3042 101.172 18.1718 98.0268 18.1865 95.1436C18.1865 91.2994 18.3042 87.4552 18.3336 83.6111C18.3336 79.33 18.3336 75.0636 18.3336 70.7825C18.3239 70.5373 18.2161 70.306 18.034 70.1394C17.8518 69.9728 17.6103 69.8846 17.3625 69.8943C17.1147 69.904 16.8809 70.0106 16.7126 70.1909C16.5443 70.3711 16.4552 70.6101 16.465 70.8554Z" fill="#7B413B"/>
<path d="M80 104.041C44.76 104.041 16.0971 89.1444 16.0971 70.8554H18.3042C18.3042 87.9503 45.9812 101.929 80 101.929C114.019 101.929 141.696 87.9503 141.696 70.8554H143.903C143.903 89.1444 115.24 104.041 80 104.041Z" fill="#7B413B"/>
<path d="M127.379 32.0349C127.379 18.6239 106.161 7.74661 80 7.74661C53.8385 7.74661 32.6209 18.5802 32.6209 32.0349V58.7695C32.6227 59.6992 32.7213 60.6263 32.9152 61.5361C35.6079 73.6511 55.663 82.9995 80 82.9995C104.337 82.9995 124.392 73.5929 127.085 61.4779C127.291 60.5698 127.395 59.6419 127.394 58.7112V32.0349H127.379Z" fill="#FFD087"/>
<path d="M80 84.4556C55.2363 84.4556 34.3866 74.7432 31.5615 61.8564C31.3311 60.8484 31.2176 59.8176 31.2231 58.784V32.0349C31.2231 17.8813 53.1028 6.36328 80 6.36328C106.897 6.36328 128.777 17.8376 128.777 32.0349V58.7695C128.781 59.8029 128.667 60.8335 128.438 61.8419C125.599 74.7287 104.764 84.4556 80 84.4556ZM80 9.10081C54.6478 9.08625 34.0188 19.3665 34.0188 32.0349V58.7695C34.0187 59.6015 34.1075 60.4313 34.2836 61.2449C36.8291 72.7046 56.899 81.6307 80 81.6307C103.101 81.6307 123.171 72.6609 125.716 61.2449C125.893 60.4313 125.981 59.6015 125.981 58.7695V32.0349C125.981 19.3665 105.352 9.08625 80 9.08625V9.10081Z" fill="#7B413B"/>
<path d="M127.379 32.0349C127.379 37.2478 127.379 42.4608 127.482 47.6737C127.482 51.9693 128.144 57.0804 123.524 59.5703C123.302 59.6956 123.057 59.7749 122.803 59.8033C118.86 60.1819 118.389 53.1488 113.607 56.8911C110.988 58.9442 110.178 62.5991 108.339 65.2347C106.703 67.7575 104.326 69.724 101.527 70.8699C94.8611 73.2289 90.9325 67.8266 85.3412 65.6715C83.6585 64.9452 81.768 64.8419 80.0147 65.3803C77.8223 66.1521 76.3362 68.1615 74.4528 69.5303C69.6266 73.0396 62.9171 71.6271 58.9737 67.5063C57.0315 65.4531 55.0451 63.1379 52.2935 62.4826C48.6739 61.6235 45.0837 63.531 41.4788 62.3807C39.6868 61.694 38.0494 60.664 36.6607 59.3496C35.2719 58.0352 34.1591 56.4624 33.3861 54.7214C33.0918 54.1244 32.8269 53.5128 32.5915 52.9013V32.0349C32.5915 18.6239 53.7944 7.74661 79.9706 7.74661C106.147 7.74661 127.379 18.5802 127.379 32.0349Z" fill="white"/>
<path d="M126.452 32.0349C126.452 38.1652 126.555 44.2955 126.599 50.4113C126.792 52.6245 126.316 54.8446 125.231 56.7891C124.583 57.7065 123.333 58.9733 122.097 58.7549C121.389 58.5472 120.763 58.1306 120.302 57.5609C119.522 56.5041 118.517 55.6293 117.359 54.9981C116.639 54.785 115.876 54.7629 115.145 54.9342C114.414 55.1054 113.741 55.4639 113.195 55.9737C111.5 57.4764 110.184 59.3517 109.354 61.4487C108.276 63.8763 106.703 66.0575 104.734 67.8557C103.671 68.8493 102.39 69.5859 100.991 70.0077C99.592 70.4296 98.1135 70.5254 96.671 70.2875C94.4029 69.6373 92.2703 68.592 90.3734 67.2005C86.2976 64.6668 81.648 62.5408 77.3515 65.8608C75.2621 67.4626 73.6436 69.4138 71.0098 70.2292C68.4176 70.9066 65.6646 70.6217 63.2702 69.4283C58.7236 67.2296 56.59 61.7982 51.087 61.3614C47.9823 61.1138 44.863 62.4098 41.8025 61.4779C39.078 60.4888 36.7846 58.5949 35.3136 56.1193C34.4163 55.0001 33.81 53.6801 33.5479 52.2751C33.5479 51.2995 33.5479 50.2802 33.5479 49.3629C33.5479 43.7713 33.5479 38.1652 33.5479 32.5591C33.5479 25.9628 38.2123 21.0265 43.5534 17.6337C52.2053 12.1296 62.8435 9.74151 72.9814 8.96976C84.3253 7.94109 95.7613 9.26525 106.559 12.8576C113.827 15.4059 122.509 19.8325 125.54 27.4189C126.121 28.8912 126.43 30.4546 126.452 32.0349C126.481 32.2601 126.591 32.4673 126.763 32.6175C126.936 32.7677 127.157 32.8505 127.386 32.8505C127.616 32.8505 127.837 32.7677 128.009 32.6175C128.181 32.4673 128.292 32.2601 128.321 32.0349C128.218 24.2155 121.847 18.4346 115.431 14.838C105.823 9.42116 94.4492 7.28065 83.5314 6.84381C71.8632 6.20057 60.1958 8.11999 49.3655 12.4645C42.2439 15.4932 34.2248 20.5606 32.1354 28.4819C31.7267 30.479 31.5735 32.519 31.6792 34.554V44.6159C31.6792 47.2369 31.5027 49.9307 31.6792 52.5372C31.9266 54.0048 32.5049 55.3984 33.3713 56.6144C34.6569 58.7926 36.4347 60.6466 38.5654 62.0312C41.0766 63.4998 44.0409 64.0172 46.9082 63.4873C48.4213 63.2071 49.9666 63.1385 51.499 63.2835C53.2647 63.6619 54.8685 64.5725 56.0898 65.8899C58.0761 67.7684 59.7094 69.7924 62.2255 71.0155C64.3596 72.0934 66.7515 72.5718 69.1411 72.3989C71.4925 72.2329 73.7362 71.3589 75.5711 69.8943C78.2196 67.7829 80.1766 65.3075 83.9728 66.2394C88.8873 67.4334 92.3156 71.9766 97.5685 72.3843C102.821 72.792 107.53 68.7294 109.958 64.361C111.267 61.9875 112.135 59.017 114.475 57.3716C116.314 56.0902 117.3 57.1677 118.565 58.5219C119.011 59.1161 119.57 59.6174 120.211 59.9972C120.853 60.377 121.563 60.6278 122.303 60.7352C124.23 60.8226 125.996 59.1481 126.952 57.6337C128.011 55.708 128.52 53.5333 128.424 51.3432C128.424 48.4309 128.424 45.5187 128.335 42.6938C128.335 39.1408 128.335 35.5878 128.335 32.0349C128.335 31.9125 128.311 31.7913 128.264 31.6783C128.216 31.5652 128.147 31.4625 128.06 31.3759C127.972 31.2894 127.868 31.2207 127.754 31.1739C127.64 31.1271 127.517 31.103 127.394 31.103C127.27 31.103 127.148 31.1271 127.033 31.1739C126.919 31.2207 126.815 31.2894 126.728 31.3759C126.64 31.4625 126.571 31.5652 126.524 31.6783C126.476 31.7913 126.452 31.9125 126.452 32.0349Z" fill="#7B413B"/>
<path d="M121.302 20.08C121.302 14.7506 119.022 3.65488 111.738 1.95121C103.69 0.0873572 97.1124 5.53329 94.0519 8.73678C84.7368 7.28064 75.2485 7.28064 65.9334 8.73678C62.8582 5.47504 56.3105 -1.0848e-05 48.2766 1.89296C40.9932 3.59663 38.639 14.6924 38.7125 20.0218C34.828 23.6039 32.6209 27.6665 32.6209 32.0349C32.6209 45.4459 53.8238 56.3086 80 56.3086C106.176 56.3086 127.379 45.4022 127.379 32.0349C127.379 27.6665 125.172 23.6039 121.302 20.08Z" fill="white"/>
<path d="M80 57.8377C52.5437 57.8377 31.0318 46.4799 31.0318 31.9914C31.0318 27.623 33.1359 23.2546 37.1087 19.3958C37.2558 14.4159 39.3452 2.41733 47.8941 0.466117C56.2075 -1.45598 62.9318 3.52399 66.5073 7.12064C75.4537 5.81021 84.5463 5.81021 93.4927 7.12064C97.1124 3.52399 103.793 -1.45598 112.091 0.422433C119.846 2.22804 122.774 12.7267 122.891 19.3521C126.864 23.1526 128.968 27.4919 128.968 31.9331C128.968 46.4799 107.412 57.8377 80 57.8377ZM51.499 3.1454C50.5083 3.14383 49.5207 3.25622 48.5562 3.48031C42.1703 4.93644 40.1545 15.4934 40.2134 20.0656V20.7646L39.6984 21.2451C36.0493 24.5505 34.1365 28.2637 34.1365 31.9914C34.1365 44.5141 54.7361 54.707 79.9264 54.707C105.117 54.707 125.716 44.5141 125.716 31.9914C125.716 28.2637 123.804 24.5505 120.155 21.2451L119.64 20.7646V20.0656C119.64 15.4934 117.683 4.96556 111.297 3.48031C104.072 1.80576 98.0541 6.7566 95.1113 9.85816L94.5374 10.4697L93.6987 10.3387C84.5913 8.93986 75.3204 8.93986 66.213 10.3387L65.389 10.4697L64.7416 9.85816C62.2549 7.19344 57.4582 3.1454 51.499 3.1454Z" fill="#7B413B"/>
<path d="M103.204 33.8987C105.552 33.8987 107.456 32.0147 107.456 29.6905C107.456 27.3664 105.552 25.4823 103.204 25.4823C100.855 25.4823 98.9516 27.3664 98.9516 29.6905C98.9516 32.0147 100.855 33.8987 103.204 33.8987Z" fill="#7D3D42"/>
<path d="M103.204 33.9861C102.328 33.986 101.472 33.7278 100.744 33.2445C100.017 32.7612 99.451 32.0746 99.1192 31.2722C98.7874 30.4697 98.7044 29.5877 98.8807 28.7383C99.0571 27.889 99.4849 27.1109 100.11 26.5029C100.734 25.895 101.528 25.4848 102.389 25.3246C103.25 25.1643 104.14 25.2613 104.945 25.6031C105.75 25.9449 106.434 26.5162 106.91 27.244C107.386 27.9719 107.633 28.8236 107.618 29.6905C107.618 30.2608 107.504 30.8254 107.281 31.3514C107.058 31.8773 106.732 32.3541 106.321 32.754C105.91 33.1538 105.423 33.4687 104.888 33.6803C104.353 33.8918 103.78 33.9958 103.204 33.9861ZM103.204 25.5697C102.382 25.5783 101.582 25.8273 100.903 26.2853C100.224 26.7433 99.6969 27.3899 99.3885 28.1436C99.0801 28.8973 99.0039 29.7244 99.1695 30.5209C99.3351 31.3174 99.7352 32.0475 100.319 32.6195C100.903 33.1914 101.645 33.5796 102.452 33.7351C103.258 33.8906 104.093 33.8065 104.852 33.4933C105.61 33.1802 106.258 32.652 106.713 31.9753C107.169 31.2986 107.412 30.5037 107.412 29.6905C107.412 29.1457 107.303 28.6062 107.091 28.1034C106.879 27.6005 106.568 27.1443 106.177 26.7611C105.786 26.3778 105.321 26.0752 104.811 25.8707C104.301 25.6662 103.755 25.5639 103.204 25.5697Z" fill="#D53D2C"/>
<path d="M56.3399 33.8987C58.6884 33.8987 60.5922 32.0147 60.5922 29.6905C60.5922 27.3664 58.6884 25.4823 56.3399 25.4823C53.9914 25.4823 52.0875 27.3664 52.0875 29.6905C52.0875 32.0147 53.9914 33.8987 56.3399 33.8987Z" fill="#7D3D42"/>
<path d="M56.3399 33.9861C55.4637 33.986 54.6074 33.7278 53.88 33.2445C53.1526 32.7612 52.587 32.0746 52.2551 31.2722C51.9233 30.4697 51.8403 29.5877 52.0167 28.7383C52.193 27.889 52.6208 27.1109 53.2455 26.5029C53.8703 25.895 54.6636 25.4848 55.5247 25.3246C56.3858 25.1643 57.2755 25.2613 58.0807 25.6031C58.8859 25.9449 59.5701 26.5162 60.0462 27.2441C60.5223 27.9719 60.7687 28.8236 60.7541 29.6905C60.7348 30.8364 60.2612 31.9289 59.4355 32.7325C58.6097 33.536 57.498 33.9863 56.3399 33.9861ZM56.3399 25.5697C55.5163 25.5697 54.7112 25.8113 54.0265 26.2642C53.3417 26.717 52.808 27.3605 52.4928 28.1135C52.1776 28.8665 52.0952 29.6951 52.2558 30.4945C52.4165 31.2938 52.8131 32.0281 53.3955 32.6044C53.9778 33.1807 54.7198 33.5732 55.5275 33.7322C56.3353 33.8912 57.1725 33.8096 57.9334 33.4977C58.6943 33.1858 59.3446 32.6576 59.8022 31.9799C60.2597 31.3023 60.504 30.5055 60.504 29.6905C60.504 29.1494 60.3963 28.6135 60.187 28.1135C59.9777 27.6136 59.671 27.1593 59.2843 26.7766C58.8977 26.394 58.4386 26.0904 57.9334 25.8833C57.4282 25.6763 56.8867 25.5697 56.3399 25.5697Z" fill="#D53D2C"/>
<path d="M74.8207 39.9562C73.7304 40.0634 72.6352 39.8081 71.7079 39.2307C70.7806 38.6532 70.0742 37.7864 69.7002 36.7673C69.6672 36.6563 69.6577 36.5397 69.6722 36.4248C69.6866 36.31 69.7248 36.1993 69.7843 36.0997C69.8438 36 69.9234 35.9136 70.018 35.8456C70.1127 35.7777 70.2205 35.7297 70.3347 35.7047C70.4489 35.6797 70.567 35.6782 70.6818 35.7003C70.7966 35.7224 70.9056 35.7675 71.002 35.8331C71.0985 35.8986 71.1802 35.983 71.2423 36.0811C71.3044 36.1792 71.3454 36.2888 71.3629 36.4033C71.8484 38.1943 74.3057 38.5438 75.9831 38.2234C76.7755 38.081 77.4965 37.6791 78.0302 37.0823C78.564 36.4854 78.8794 35.7283 78.9259 34.9326C78.941 34.7098 79.0432 34.5017 79.2107 34.3522C79.3783 34.2027 79.598 34.1236 79.8234 34.1317C79.9362 34.1354 80.0471 34.1615 80.1494 34.2085C80.2518 34.2555 80.3434 34.3225 80.419 34.4055C80.4946 34.4884 80.5524 34.5856 80.5891 34.6912C80.6259 34.7967 80.6407 34.9086 80.6327 35.02C80.5649 36.1903 80.1038 37.3046 79.3227 38.1858C78.5416 39.067 77.4852 39.6645 76.3215 39.8834C75.825 39.9583 75.3221 39.9827 74.8207 39.9562Z" fill="#7D3D42"/>
<path d="M84.7379 39.9562C84.2437 39.9567 83.7508 39.9079 83.2665 39.8106C82.0974 39.5976 81.0343 39.0025 80.2474 38.1208C79.4605 37.2391 78.9951 36.1216 78.9259 34.9471C78.9179 34.8358 78.9327 34.7239 78.9694 34.6184C79.0062 34.5128 79.064 34.4156 79.1396 34.3327C79.2151 34.2497 79.3068 34.1827 79.4092 34.1357C79.5115 34.0887 79.6224 34.0625 79.7351 34.0589C79.9596 34.0544 80.1774 34.1348 80.3441 34.2835C80.5108 34.4323 80.614 34.6384 80.6327 34.8598C80.6766 35.6563 80.9911 36.4147 81.5253 37.0121C82.0595 37.6095 82.782 38.0107 83.5755 38.1506C85.1646 38.4564 87.7101 38.1506 88.181 36.3305C88.2431 36.1126 88.3882 35.927 88.5859 35.8129C88.7835 35.6988 89.0182 35.6651 89.2404 35.7189C89.3496 35.7459 89.4522 35.7943 89.5422 35.8614C89.6321 35.9284 89.7074 36.0127 89.7637 36.1092C89.82 36.2056 89.8561 36.3123 89.8698 36.4229C89.8836 36.5335 89.8747 36.6457 89.8437 36.7528C89.4795 37.7764 88.7778 38.6489 87.8517 39.23C86.9255 39.8111 85.8288 40.0669 84.7379 39.9562Z" fill="#7D3D42"/>
<path d="M117.624 32.7193C117.412 32.7167 117.209 32.6364 117.053 32.4938C116.898 32.3513 116.802 32.1567 116.784 31.9479C116.765 31.7392 116.826 31.5311 116.954 31.3642C117.082 31.1972 117.268 31.0834 117.477 31.0447L122.538 30.1419C122.762 30.1035 122.993 30.1537 123.18 30.2817C123.367 30.4097 123.496 30.6053 123.539 30.8263C123.56 30.9363 123.559 31.0494 123.535 31.159C123.512 31.2686 123.467 31.3725 123.402 31.4647C123.338 31.5568 123.256 31.6354 123.161 31.6958C123.065 31.7562 122.959 31.7972 122.847 31.8165L117.712 32.7193H117.624Z" fill="#7D3D42"/>
<path d="M122.523 37.9468C122.436 37.9607 122.346 37.9607 122.259 37.9468L117.359 36.4033C117.251 36.3701 117.152 36.3163 117.065 36.2448C116.979 36.1734 116.908 36.0857 116.856 35.9869C116.804 35.8881 116.772 35.7801 116.762 35.6692C116.753 35.5582 116.766 35.4464 116.8 35.3403C116.874 35.1267 117.029 34.9498 117.231 34.8466C117.434 34.7434 117.67 34.7221 117.889 34.787L122.788 36.3596C122.896 36.3927 122.996 36.4466 123.082 36.518C123.168 36.5895 123.239 36.6771 123.291 36.7759C123.343 36.8747 123.375 36.9827 123.385 37.0937C123.394 37.2047 123.382 37.3165 123.347 37.4226C123.279 37.5819 123.164 37.7171 123.017 37.8107C122.87 37.9042 122.698 37.9516 122.523 37.9468Z" fill="#7D3D42"/>
<path d="M42.1115 32.7193H41.9643L36.888 31.8165C36.6636 31.7759 36.4647 31.6488 36.335 31.4631C36.2053 31.2774 36.1555 31.0484 36.1964 30.8263C36.2374 30.6042 36.3658 30.4074 36.5535 30.279C36.7411 30.1507 36.9726 30.1014 37.197 30.1419L42.2586 31.0447C42.4667 31.0834 42.6529 31.1972 42.7809 31.3642C42.9089 31.5311 42.9697 31.7392 42.9513 31.9479C42.933 32.1567 42.8369 32.3513 42.6817 32.4938C42.5264 32.6364 42.3232 32.7167 42.1115 32.7193Z" fill="#7D3D42"/>
<path d="M37.2117 37.9468C37.0282 37.9462 36.8497 37.8881 36.7016 37.7809C36.5536 37.6736 36.4437 37.5227 36.3877 37.3498C36.3535 37.2437 36.3408 37.1319 36.3505 37.0209C36.3601 36.9099 36.3918 36.8019 36.4438 36.7031C36.4957 36.6043 36.5669 36.5167 36.6533 36.4452C36.7396 36.3738 36.8394 36.3199 36.9468 36.2868L41.8466 34.7142C42.0652 34.6493 42.3006 34.6706 42.5036 34.7738C42.7066 34.877 42.8614 35.0539 42.9354 35.2675C42.9696 35.3736 42.9823 35.4854 42.9727 35.5964C42.9631 35.7073 42.9313 35.8153 42.8794 35.9141C42.8274 36.0129 42.7562 36.1006 42.6699 36.172C42.5835 36.2435 42.4838 36.2973 42.3763 36.3305L37.4765 37.8594C37.3938 37.903 37.3043 37.9325 37.2117 37.9468Z" fill="#7D3D42"/>
<path d="M107.898 38.8933C110.295 38.8933 112.238 37.8762 112.238 36.6217C112.238 35.3671 110.295 34.3501 107.898 34.3501C105.5 34.3501 103.557 35.3671 103.557 36.6217C103.557 37.8762 105.5 38.8933 107.898 38.8933Z" fill="#F397B7"/>
<path d="M51.8815 38.8933C54.2788 38.8933 56.2222 37.8762 56.2222 36.6217C56.2222 35.3671 54.2788 34.3501 51.8815 34.3501C49.4843 34.3501 47.5409 35.3671 47.5409 36.6217C47.5409 37.8762 49.4843 38.8933 51.8815 38.8933Z" fill="#F397B7"/>
</svg>
