<svg width="32" height="33" viewBox="0 0 32 33" fill="none" xmlns="http://www.w3.org/2000/svg">
<path d="M25.2657 0.256958H6.7343C3.01505 0.256958 0 3.27201 0 6.99126V25.5227C0 29.2419 3.01505 32.257 6.7343 32.257H25.2657C28.9849 32.257 32 29.2419 32 25.5227V6.99126C32 3.27201 28.9849 0.256958 25.2657 0.256958Z" fill="#89DBC4"/>
<path d="M28.2614 13.552C28.2614 10.0386 22.7615 7.19055 15.979 7.19055C9.19645 7.19055 3.69972 10.0386 3.69972 13.552V20.5659C3.69908 20.8103 3.72603 21.0541 3.78008 21.2924C4.4744 24.4619 9.67219 26.937 15.979 26.937C22.2858 26.937 27.4868 24.4715 28.1939 21.3021C28.2464 21.0634 28.2733 20.8199 28.2743 20.5756V13.5552L28.2614 13.552Z" fill="#FFD087"/>
<path d="M15.9787 27.2328C9.58832 27.2328 4.21373 24.7062 3.48083 21.3567C3.42322 21.0971 3.39412 20.8319 3.39404 20.566V13.552C3.39404 9.87465 9.03864 6.88519 15.9787 6.88519C22.9187 6.88519 28.5665 9.87465 28.5665 13.552V20.566C28.5664 20.8319 28.5373 21.0971 28.4797 21.3567C27.7468 24.7062 22.3722 27.2328 15.9787 27.2328ZM15.9787 7.49594C9.37616 7.49594 4.00479 10.2122 4.00479 13.552V20.566C4.00571 20.7875 4.02941 21.0083 4.07551 21.2249C4.75055 24.3012 9.86155 26.6188 15.969 26.6188C22.0765 26.6188 27.2004 24.3012 27.8626 21.2249C27.9211 21.0097 27.9555 20.7887 27.9654 20.566V13.552C27.9654 10.2218 22.5812 7.49594 15.9787 7.49594V7.49594Z" fill="#7B413B"/>
<path d="M28.2614 13.552C28.2614 14.9192 28.2689 16.2843 28.2839 17.6472C28.2839 18.7755 28.4575 20.1127 27.2585 20.7653C27.2005 20.7966 27.1373 20.8173 27.072 20.8263C26.0531 20.926 25.918 19.0809 24.6901 20.0581C24.0119 20.5981 23.8029 21.5528 23.3272 22.2407C22.8987 22.9085 22.2729 23.4264 21.5367 23.7226C19.8202 24.3397 18.8012 22.9254 17.3579 22.3628C16.9208 22.1745 16.4311 22.1471 15.9757 22.2857C15.4067 22.4914 15.0114 23.0154 14.5324 23.3722C13.2852 24.2947 11.543 23.9219 10.524 22.8418C10.0193 22.305 9.50499 21.7007 8.78816 21.5271C7.85275 21.3021 6.92377 21.8035 5.98836 21.5014C5.05074 21.137 4.29589 20.4157 3.88932 19.4955C3.81539 19.338 3.74467 19.1741 3.68359 19.0198V13.5552C3.68359 10.0418 9.18033 7.19379 15.9629 7.19379C22.7454 7.19379 28.2614 10.0386 28.2614 13.552Z" fill="white"/>
<path d="M28.0558 13.5519C28.0558 15.1592 28.0912 16.7953 28.0944 18.4154C28.0944 18.9876 28.0687 19.6176 27.7215 20.0998C27.5576 20.3345 27.2425 20.6495 26.934 20.6238C26.7301 20.5804 26.548 20.4666 26.4196 20.3023C26.2118 20.0289 25.9517 19.7995 25.6546 19.6273C25.4709 19.5686 25.2748 19.5606 25.0869 19.6042C24.8991 19.6477 24.7265 19.7412 24.5874 19.8748C24.0827 20.2669 23.8191 20.8391 23.5459 21.4145C23.257 22.0593 22.8237 22.6291 22.2794 23.0796C22.0066 23.3129 21.6857 23.4831 21.3395 23.5782C20.9933 23.6732 20.6305 23.6906 20.2768 23.6293C19.6894 23.4567 19.1367 23.1825 18.6438 22.8192C17.5638 22.141 16.3616 21.6074 15.2429 22.5203C14.674 22.9832 14.2207 23.4846 13.4686 23.6486C12.7975 23.7727 12.1041 23.659 11.5077 23.3271C10.897 23.0057 10.508 22.4496 9.99694 21.9931C9.53023 21.5378 8.90663 21.279 8.2547 21.2699C7.44465 21.2699 6.64746 21.5656 5.86956 21.2345C5.2175 20.9314 4.67518 20.434 4.31698 19.8105C4.09798 19.5312 3.95809 19.1981 3.91195 18.8462V18.0683C3.91195 16.6025 3.91195 15.1367 3.91195 13.6709C3.91195 11.9351 5.13988 10.63 6.52853 9.73958C8.77865 8.29307 11.5399 7.66625 14.1757 7.46374C17.1432 7.1983 20.1332 7.56083 22.9512 8.52772C24.8317 9.20598 27.0593 10.3696 27.834 12.3497C27.9845 12.7328 28.063 13.1404 28.0654 13.5519C28.0717 13.6017 28.0959 13.6474 28.1335 13.6805C28.1711 13.7137 28.2194 13.732 28.2696 13.732C28.3197 13.732 28.3681 13.7137 28.4057 13.6805C28.4432 13.6474 28.4674 13.6017 28.4737 13.5519C28.4512 11.514 26.7925 10.016 25.1403 9.0774C22.633 7.65017 19.6693 7.10372 16.8277 7.00728C13.8511 6.9012 10.7684 7.30301 8.02004 8.48915C6.19744 9.27991 4.12732 10.6075 3.60658 12.668C3.50428 13.1896 3.46756 13.722 3.49729 14.2527V16.8885C3.49729 17.5668 3.48121 18.2483 3.49729 18.9265C3.54869 19.2857 3.68537 19.6274 3.89588 19.923C4.22722 20.5121 4.6945 21.0136 5.25881 21.3856C5.90224 21.7627 6.66046 21.894 7.39322 21.7552C7.81719 21.675 8.25127 21.6631 8.679 21.7199C9.10163 21.826 9.48591 22.0488 9.788 22.3628C10.2798 22.8289 10.6816 23.3464 11.2892 23.6743C11.8495 23.9836 12.4854 24.1295 13.1246 24.0954C13.7316 24.0575 14.312 23.8329 14.7865 23.4525C15.5001 22.8835 16.0273 22.2085 17.0366 22.4881C18.2903 22.8257 19.1807 23.9861 20.5179 24.0954C21.8551 24.2047 23.0895 23.131 23.7002 22.0124C24.0409 21.3695 24.2659 20.6173 24.8671 20.1802C25.3267 19.8587 25.6032 20.0516 25.9375 20.4148C26.1584 20.725 26.4836 20.9452 26.8536 21.0352C27.3775 21.1059 27.8597 20.6495 28.1169 20.2348C28.3814 19.7417 28.509 19.1867 28.4865 18.6276C28.5058 17.8593 28.4865 17.0846 28.464 16.3164C28.464 15.397 28.464 14.4777 28.464 13.5584C28.4586 13.5085 28.4352 13.4623 28.3981 13.4286C28.361 13.3948 28.3129 13.3757 28.2628 13.3749C28.2126 13.3741 28.1639 13.3917 28.1258 13.4243C28.0877 13.4569 28.0628 13.5023 28.0558 13.5519V13.5519Z" fill="#7B413B"/>
<path d="M26.6805 10.434C26.6805 9.03567 26.089 6.12979 24.1989 5.6862C22.1127 5.19438 20.4187 6.6216 19.6183 7.47665C17.2042 7.09522 14.7452 7.09522 12.3311 7.47665C11.5307 6.6216 9.83348 5.19438 7.74729 5.6862C5.8604 6.12979 5.25286 9.03567 5.26894 10.434C4.26602 11.3533 3.69385 12.4173 3.69385 13.552C3.69385 17.0654 9.19058 19.9102 15.9731 19.9102C22.7556 19.9102 28.2556 17.0654 28.2556 13.552C28.262 12.4173 27.6898 11.3533 26.6805 10.434Z" fill="white"/>
<path d="M15.9794 20.2574C9.01691 20.2574 3.35303 17.2486 3.35303 13.552C3.35303 12.4012 3.89949 11.2729 4.92812 10.2829C4.95705 8.99708 5.48422 5.86619 7.67648 5.34866C9.8141 4.84721 11.5499 6.17157 12.4628 7.10698C14.7955 6.75981 17.1666 6.75981 19.4993 7.10698C20.4122 6.17157 22.1448 4.85685 24.2856 5.34866C26.4779 5.86619 27.0051 9.00994 27.0308 10.2829C28.0626 11.2729 28.6091 12.4012 28.6091 13.552C28.6091 17.2486 22.942 20.2574 15.9794 20.2574ZM8.61189 5.9337C8.35003 5.93437 8.08909 5.96457 7.83399 6.0237C6.14318 6.42229 5.60637 9.21566 5.62244 10.4307V10.585L5.50993 10.6879C4.54559 11.5687 4.04735 12.5587 4.04735 13.552C4.04735 16.8661 9.39944 19.5662 15.9794 19.5662C22.5595 19.5662 27.9148 16.8661 27.9148 13.552C27.9148 12.5587 27.4101 11.5687 26.4522 10.6879L26.3365 10.585V10.4307C26.3365 9.21566 25.8157 6.42229 24.1249 6.0237C22.2187 5.57689 20.6436 6.88839 19.8754 7.71451L19.75 7.8463L19.5668 7.81737C17.1884 7.44773 14.7672 7.44773 12.3889 7.81737L12.2057 7.8463L12.0803 7.71451C11.4213 7.00733 10.1613 5.9337 8.61189 5.9337Z" fill="#7B413B"/>
<path d="M21.9966 14.0534C22.6055 14.0534 23.0992 13.5598 23.0992 12.9509C23.0992 12.342 22.6055 11.8483 21.9966 11.8483C21.3877 11.8483 20.894 12.342 20.894 12.9509C20.894 13.5598 21.3877 14.0534 21.9966 14.0534Z" fill="#7D3D42"/>
<path d="M21.9968 14.0791C21.775 14.0791 21.5581 14.0134 21.3736 13.8901C21.1891 13.7668 21.0453 13.5916 20.9604 13.3866C20.8755 13.1816 20.8533 12.9561 20.8966 12.7384C20.9398 12.5208 21.0467 12.3209 21.2036 12.164C21.3605 12.0071 21.5604 11.9003 21.778 11.857C21.9956 11.8137 22.2212 11.8359 22.4262 11.9208C22.6312 12.0058 22.8064 12.1495 22.9296 12.334C23.0529 12.5185 23.1187 12.7354 23.1187 12.9573C23.1187 13.2548 23.0005 13.5402 22.7901 13.7506C22.5797 13.961 22.2944 14.0791 21.9968 14.0791ZM21.9968 11.874C21.7825 11.8734 21.5727 11.9364 21.3941 12.055C21.2156 12.1737 21.0762 12.3426 20.9937 12.5405C20.9113 12.7384 20.8894 12.9563 20.9308 13.1667C20.9722 13.377 21.0751 13.5703 21.2265 13.7221C21.3779 13.874 21.5709 13.9775 21.7811 14.0195C21.9913 14.0616 22.2093 14.0403 22.4074 13.9584C22.6056 13.8765 22.7749 13.7377 22.8941 13.5595C23.0133 13.3813 23.0769 13.1717 23.0769 12.9573C23.0778 12.8148 23.0505 12.6735 22.9966 12.5415C22.9427 12.4096 22.8634 12.2895 22.763 12.1883C22.6627 12.0871 22.5434 12.0066 22.4119 11.9516C22.2804 11.8966 22.1394 11.868 21.9968 11.8676V11.874Z" fill="#D53D2C"/>
<path d="M9.84914 14.0534C10.4581 14.0534 10.9517 13.5598 10.9517 12.9509C10.9517 12.342 10.4581 11.8483 9.84914 11.8483C9.24022 11.8483 8.74658 12.342 8.74658 12.9509C8.74658 13.5598 9.24022 14.0534 9.84914 14.0534Z" fill="#7D3D42"/>
<path d="M9.84959 14.0791C9.62785 14.0785 9.41127 14.0122 9.2272 13.8885C9.04314 13.7649 8.89985 13.5894 8.81543 13.3844C8.73102 13.1793 8.70926 12.9539 8.75291 12.7365C8.79656 12.5191 8.90365 12.3195 9.06067 12.1629C9.2177 12.0063 9.41759 11.8998 9.63512 11.8568C9.85265 11.8137 10.0781 11.8361 10.2829 11.9212C10.4877 12.0062 10.6627 12.1499 10.7858 12.3344C10.9089 12.5188 10.9747 12.7355 10.9747 12.9573C10.9738 13.2551 10.8549 13.5405 10.644 13.7508C10.4331 13.9611 10.1474 14.0791 9.84959 14.0791V14.0791ZM9.84959 11.874C9.63493 11.8734 9.42492 11.9365 9.24622 12.0555C9.06752 12.1744 8.92818 12.3437 8.84588 12.542C8.76359 12.7403 8.74206 12.9585 8.78402 13.169C8.82597 13.3795 8.92953 13.5729 9.08155 13.7244C9.23356 13.876 9.42718 13.979 9.63782 14.0203C9.84847 14.0616 10.0666 14.0394 10.2647 13.9566C10.4627 13.8737 10.6316 13.7338 10.75 13.5548C10.8684 13.3757 10.9309 13.1655 10.9297 12.9509C10.9297 12.6641 10.816 12.3891 10.6135 12.186C10.411 11.9829 10.1363 11.8684 9.84959 11.8676V11.874Z" fill="#D53D2C"/>
<path d="M18.3645 14.5614C18.3163 14.5496 18.2655 14.5571 18.2229 14.5823C18.1802 14.6076 18.1491 14.6485 18.1363 14.6964C18.0077 15.1882 17.3359 15.2878 16.9019 15.1978C16.6894 15.1594 16.496 15.0507 16.3527 14.8893C16.2093 14.7278 16.1242 14.5229 16.1111 14.3074C16.1111 14.3074 16.1111 14.2881 16.1111 14.2785V14.2431L16.0919 14.211L16.0726 14.1853L16.0372 14.1595H16.0147H15.9729H15.9504H15.9118H15.8893H15.8476H15.8251L15.7897 14.1853V14.2078L15.7672 14.2431V14.2785C15.7672 14.2785 15.7672 14.2946 15.7672 14.3074C15.7541 14.5229 15.6691 14.7278 15.5257 14.8893C15.3823 15.0507 15.1889 15.1594 14.9764 15.1978C14.5425 15.2878 13.8707 15.1978 13.7421 14.6964C13.7293 14.6482 13.6979 14.6071 13.6548 14.5821C13.6117 14.557 13.5604 14.5502 13.5123 14.563C13.4641 14.5757 13.423 14.6071 13.398 14.6503C13.3729 14.6934 13.3661 14.7446 13.3789 14.7928C13.5396 15.4035 14.1632 15.5996 14.6839 15.5996C14.8078 15.5993 14.9315 15.5886 15.0536 15.5675C15.2404 15.5285 15.417 15.4512 15.5725 15.3406C15.728 15.2299 15.8588 15.0883 15.9569 14.9246C16.0541 15.0889 16.1848 15.231 16.3403 15.3418C16.4959 15.4525 16.673 15.5294 16.8601 15.5675C16.9811 15.5887 17.1037 15.5995 17.2266 15.5996C17.7473 15.5996 18.3709 15.4035 18.5316 14.7928C18.5377 14.7665 18.5381 14.7391 18.5327 14.7126C18.5274 14.6861 18.5164 14.6611 18.5006 14.6391C18.4848 14.6172 18.4644 14.5989 18.4409 14.5855C18.4175 14.5721 18.3914 14.5639 18.3645 14.5614V14.5614Z" fill="#7D3D42"/>
<path d="M25.7321 13.7095C25.6879 13.7095 25.6451 13.6941 25.6111 13.666C25.577 13.6378 25.5539 13.5986 25.5457 13.5552C25.5381 13.5059 25.55 13.4556 25.5788 13.4148C25.6075 13.3741 25.651 13.346 25.7 13.3366L27.0018 13.1148C27.0261 13.1107 27.051 13.1114 27.075 13.1169C27.099 13.1225 27.1217 13.1327 27.1417 13.1471C27.1617 13.1614 27.1787 13.1796 27.1917 13.2005C27.2046 13.2215 27.2133 13.2448 27.2172 13.2691C27.2218 13.2932 27.2215 13.318 27.2164 13.342C27.2112 13.366 27.2013 13.3887 27.1872 13.4088C27.1731 13.4289 27.1552 13.4459 27.1344 13.4589C27.1136 13.4719 27.0903 13.4806 27.0661 13.4845L25.7514 13.7191L25.7321 13.7095Z" fill="#7D3D42"/>
<path d="M27.0017 15.0756C26.9825 15.0787 26.963 15.0787 26.9438 15.0756L25.6741 14.6578C25.6507 14.6502 25.629 14.638 25.6103 14.622C25.5915 14.6061 25.5761 14.5865 25.5649 14.5646C25.5537 14.5427 25.547 14.5187 25.545 14.4942C25.5431 14.4696 25.546 14.4449 25.5536 14.4215C25.5612 14.3981 25.5733 14.3764 25.5893 14.3576C25.6053 14.3389 25.6248 14.3235 25.6467 14.3123C25.6687 14.3011 25.6926 14.2943 25.7172 14.2924C25.7417 14.2904 25.7664 14.2934 25.7898 14.301L27.0756 14.7092C27.1242 14.719 27.1669 14.7477 27.1944 14.789C27.2218 14.8303 27.2317 14.8808 27.2219 14.9294C27.2121 14.978 27.1834 15.0207 27.1421 15.0481C27.1008 15.0755 27.0503 15.0854 27.0017 15.0756V15.0756Z" fill="#7D3D42"/>
<path d="M6.16221 13.7095H6.12686L4.82178 13.4716C4.77324 13.463 4.73009 13.4355 4.70178 13.3951C4.67347 13.3548 4.66229 13.3048 4.6707 13.2562C4.68011 13.2072 4.70813 13.1638 4.74889 13.135C4.78965 13.1063 4.83997 13.0944 4.88929 13.102L6.204 13.3366C6.25345 13.3409 6.29918 13.3646 6.33113 13.4026C6.36308 13.4406 6.37863 13.4897 6.37437 13.5391C6.37011 13.5886 6.34638 13.6343 6.3084 13.6662C6.27042 13.6982 6.2213 13.7137 6.17186 13.7095H6.16221Z" fill="#7D3D42"/>
<path d="M4.88913 15.0756C4.84988 15.0755 4.81166 15.063 4.77991 15.0399C4.74817 15.0168 4.72452 14.9843 4.71234 14.947C4.70015 14.9026 4.70452 14.8553 4.72463 14.8139C4.74473 14.7725 4.77921 14.7398 4.82163 14.722L6.10741 14.3137C6.15431 14.2985 6.20532 14.3025 6.2493 14.3248C6.29327 14.3471 6.32663 14.3859 6.34207 14.4327C6.3574 14.48 6.35353 14.5315 6.33128 14.576C6.30904 14.6205 6.2702 14.6544 6.22314 14.6706L4.93735 15.0788C4.92121 15.0799 4.90499 15.0788 4.88913 15.0756V15.0756Z" fill="#7D3D42"/>
<path d="M23.212 15.3617C23.8333 15.3617 24.337 15.094 24.337 14.7638C24.337 14.4336 23.8333 14.1659 23.212 14.1659C22.5906 14.1659 22.0869 14.4336 22.0869 14.7638C22.0869 15.094 22.5906 15.3617 23.212 15.3617Z" fill="#F397B7"/>
<path d="M8.69538 15.3617C9.31673 15.3617 9.82044 15.094 9.82044 14.7638C9.82044 14.4336 9.31673 14.1659 8.69538 14.1659C8.07402 14.1659 7.57031 14.4336 7.57031 14.7638C7.57031 15.094 8.07402 15.3617 8.69538 15.3617Z" fill="#F397B7"/>
</svg>
