<svg width="13" height="12" viewBox="0 0 13 12" fill="none" xmlns="http://www.w3.org/2000/svg">
<path d="M11.3333 0H1.99996C1.26663 0 0.666626 0.6 0.666626 1.33333V6.66667C0.666626 8.14 1.85996 9.33333 3.33329 9.33333H7.33329C8.80663 9.33333 9.99996 8.14 9.99996 6.66667V4.66667H11.3333C12.0733 4.66667 12.6666 4.06667 12.6666 3.33333V1.33333C12.6666 0.6 12.0666 0 11.3333 0ZM11.3333 3.33333H9.99996V1.33333H11.3333V3.33333ZM1.33329 10.6667H10.6666C11.0333 10.6667 11.3333 10.9667 11.3333 11.3333C11.3333 11.7 11.0333 12 10.6666 12H1.33329C0.966626 12 0.666626 11.7 0.666626 11.3333C0.666626 10.9667 0.966626 10.6667 1.33329 10.6667Z" fill="#6EA3AA"/>
</svg>
