<svg width="25" height="25" viewBox="0 0 25 25" fill="none" xmlns="http://www.w3.org/2000/svg">
<path fill-rule="evenodd" clip-rule="evenodd" d="M8.18983 6.36984C7.18469 6.36984 6.36987 7.18466 6.36987 8.18979V16.3796C6.36987 17.3847 7.18469 18.1995 8.18983 18.1995H16.3796C17.3848 18.1995 18.1996 17.3847 18.1996 16.3796V8.1898C18.1996 7.18466 17.3848 6.36984 16.3796 6.36984H8.18983ZM13.1947 10.9197C12.4409 10.9197 11.8297 11.5308 11.8297 12.2847C11.8297 13.0385 12.4409 13.6497 13.1947 13.6497H15.0147C15.7685 13.6497 16.3796 13.0385 16.3796 12.2847C16.3796 11.5308 15.7685 10.9197 15.0147 10.9197H13.1947Z" fill="#FAE8BA"/>
</svg>
