<svg width="18" height="18" viewBox="0 0 18 18" fill="none" xmlns="http://www.w3.org/2000/svg">
<g filter="url(#filter0_d)">
<rect y="0.75" width="16.9508" height="16.5" rx="8.25" fill="#50E3C2"/>
<path d="M14.4699 7.53576C14.4699 5.61883 11.7853 4.06494 8.47466 4.06494C5.164 4.06494 2.48096 5.61883 2.48096 7.53576V11.3626C2.48065 11.496 2.49381 11.6289 2.52019 11.759C2.8591 13.4882 5.39622 14.8387 8.47466 14.8387C11.5531 14.8387 14.0918 13.4935 14.437 11.7642C14.4626 11.634 14.4757 11.5012 14.4762 11.3679V7.53752L14.4699 7.53576Z" fill="#FFD087"/>
<path d="M8.47478 14.9999C5.35555 14.9999 2.73213 13.6214 2.37439 11.7939C2.34627 11.6523 2.33207 11.5076 2.33203 11.3625V7.53563C2.33203 5.52925 5.08725 3.89819 8.47478 3.89819C11.8623 3.89819 14.6191 5.52925 14.6191 7.53563V11.3625C14.6191 11.5076 14.6049 11.6523 14.5767 11.7939C14.219 13.6214 11.5956 14.9999 8.47478 14.9999ZM8.47478 4.23142C5.252 4.23142 2.63015 5.7134 2.63015 7.53563V11.3625C2.6306 11.4833 2.64216 11.6038 2.66467 11.722C2.99416 13.4004 5.48892 14.6649 8.47008 14.6649C11.4512 14.6649 13.9523 13.4004 14.2755 11.722C14.304 11.6046 14.3209 11.484 14.3257 11.3625V7.53563C14.3257 5.71866 11.6976 4.23142 8.47478 4.23142Z" fill="#7B413B"/>
<path d="M14.4699 7.53572C14.4699 8.28168 14.4736 9.02647 14.4809 9.77009C14.4809 10.3857 14.5657 11.1153 13.9804 11.4713C13.9521 11.4884 13.9213 11.4997 13.8894 11.5046C13.392 11.559 13.3261 10.5523 12.7268 11.0855C12.3957 11.3801 12.2937 11.901 12.0615 12.2763C11.8523 12.6407 11.5469 12.9233 11.1875 13.0848C10.3497 13.4216 9.85229 12.6499 9.1478 12.343C8.93444 12.2402 8.69539 12.2253 8.47312 12.3009C8.1954 12.4131 8.00241 12.699 7.76862 12.8937C7.15984 13.397 6.30942 13.1936 5.81204 12.6043C5.5657 12.3114 5.31466 11.9817 4.96476 11.887C4.50818 11.7642 4.05473 12.0378 3.59814 11.8729C3.14047 11.6741 2.77201 11.2806 2.57356 10.7785C2.53747 10.6926 2.50296 10.6032 2.47314 10.519V7.53747C2.47314 5.62054 5.15619 4.06665 8.46684 4.06665C11.7775 4.06665 14.4699 5.61879 14.4699 7.53572Z" fill="white"/>
<path d="M14.3687 7.53574C14.3687 8.41266 14.386 9.30536 14.3876 10.1893C14.3876 10.5015 14.375 10.8452 14.2055 11.1083C14.1255 11.2363 13.9718 11.4082 13.8211 11.3942C13.7216 11.3705 13.6327 11.3084 13.5701 11.2188C13.4686 11.0696 13.3417 10.9444 13.1967 10.8505C13.107 10.8184 13.0113 10.8141 12.9196 10.8379C12.8279 10.8616 12.7436 10.9126 12.6757 10.9855C12.4294 11.1995 12.3007 11.5117 12.1674 11.8256C12.0264 12.1774 11.8149 12.4883 11.5492 12.7341C11.416 12.8614 11.2594 12.9543 11.0904 13.0061C10.9214 13.0579 10.7443 13.0675 10.5717 13.034C10.2849 12.9398 10.0152 12.7902 9.77461 12.592C9.24741 12.222 8.66059 11.9308 8.11457 12.4289C7.83685 12.6815 7.61562 12.9551 7.24847 13.0445C6.92089 13.1122 6.58245 13.0502 6.29136 12.8691C5.99324 12.6937 5.80339 12.3903 5.55392 12.1413C5.32611 11.8929 5.02172 11.7516 4.7035 11.7467C4.30811 11.7467 3.91899 11.908 3.53928 11.7274C3.221 11.562 2.95628 11.2906 2.78144 10.9504C2.67454 10.798 2.60626 10.6163 2.58374 10.4243V9.99987C2.58374 9.20013 2.58374 8.40038 2.58374 7.60064C2.58374 6.65357 3.18311 5.94152 3.86093 5.45571C4.95925 4.66649 6.30705 4.32449 7.59365 4.214C9.0421 4.06917 10.5016 4.26697 11.8771 4.79452C12.795 5.16457 13.8823 5.79946 14.2605 6.87981C14.3339 7.08882 14.3722 7.31119 14.3734 7.53574C14.3765 7.56288 14.3883 7.58783 14.4066 7.60592C14.425 7.624 14.4486 7.63399 14.4731 7.63399C14.4975 7.63399 14.5212 7.624 14.5395 7.60592C14.5578 7.58783 14.5696 7.56288 14.5727 7.53574C14.5617 6.42382 13.7521 5.60654 12.9456 5.09442C11.7218 4.31572 10.2751 4.01757 8.8881 3.96496C7.43518 3.90708 5.93048 4.12631 4.58896 4.77347C3.69932 5.20491 2.68887 5.92924 2.43468 7.05344C2.38475 7.33805 2.36683 7.62851 2.38134 7.91808V9.35622C2.38134 9.72627 2.37349 10.0981 2.38134 10.4681C2.40643 10.6641 2.47314 10.8506 2.5759 11.0118C2.73763 11.3333 2.96571 11.6068 3.24117 11.8098C3.55523 12.0156 3.92533 12.0872 4.283 12.0115C4.48995 11.9677 4.70183 11.9612 4.91061 11.9922C5.1169 12.0501 5.30448 12.1716 5.45193 12.343C5.69199 12.5973 5.88812 12.8797 6.18467 13.0585C6.45819 13.2273 6.76859 13.3069 7.08058 13.2883C7.37685 13.2676 7.66017 13.1451 7.89177 12.9375C8.2401 12.6271 8.49742 12.2588 8.99009 12.4114C9.60201 12.5955 10.0366 13.2287 10.6894 13.2883C11.3421 13.3479 11.9446 12.7621 12.2427 12.1518C12.409 11.801 12.5188 11.3907 12.8122 11.1521C13.0366 10.9768 13.1716 11.082 13.3347 11.2802C13.4426 11.4494 13.6013 11.5695 13.7819 11.6187C14.0377 11.6572 14.273 11.4082 14.3985 11.1819C14.5276 10.9129 14.5899 10.6101 14.579 10.305C14.5884 9.88587 14.579 9.4632 14.568 9.04403C14.568 8.54244 14.568 8.04085 14.568 7.53925C14.5653 7.51205 14.5539 7.48686 14.5358 7.46843C14.5177 7.45 14.4942 7.43959 14.4697 7.43916C14.4453 7.43873 14.4215 7.44831 14.4029 7.46609C14.3843 7.48388 14.3721 7.50865 14.3687 7.53574Z" fill="#7B413B"/>
<path d="M13.6982 5.83448C13.6982 5.07156 13.4095 3.4861 12.4869 3.24408C11.4686 2.97574 10.6417 3.75444 10.251 4.22096C9.07265 4.01285 7.87237 4.01285 6.69401 4.22096C6.30332 3.75444 5.47488 2.97574 4.45657 3.24408C3.53555 3.4861 3.23901 5.07156 3.24685 5.83448C2.75731 6.33607 2.47803 6.91659 2.47803 7.53569C2.47803 9.45262 5.16107 11.0048 8.47172 11.0048C11.7824 11.0048 14.467 9.45262 14.467 7.53569C14.4701 6.91659 14.1908 6.33607 13.6982 5.83448Z" fill="white"/>
<path d="M8.47467 11.1942C5.07615 11.1942 2.31152 9.55262 2.31152 7.53572C2.31152 6.90785 2.57826 6.29226 3.08035 5.75208C3.09447 5.05055 3.35179 3.34232 4.42187 3.05996C5.46527 2.78636 6.31255 3.50894 6.75815 4.0193C7.89675 3.82988 9.05416 3.82988 10.1928 4.0193C10.6384 3.50894 11.4841 2.79162 12.529 3.05996C13.5991 3.34232 13.8564 5.05757 13.869 5.75208C14.3727 6.29226 14.6394 6.90785 14.6394 7.53572C14.6394 9.55262 11.8732 11.1942 8.47467 11.1942ZM4.87846 3.37915C4.75064 3.37952 4.62327 3.396 4.49875 3.42826C3.67344 3.64574 3.41141 5.16981 3.41926 5.83276V5.91694L3.36434 5.97306C2.89363 6.45361 2.65043 6.99379 2.65043 7.53572C2.65043 9.34392 5.26287 10.8171 8.47467 10.8171C11.6865 10.8171 14.3005 9.34392 14.3005 7.53572C14.3005 6.99379 14.0541 6.45361 13.5866 5.97306L13.5301 5.91694V5.83276C13.5301 5.16981 13.2759 3.64574 12.4506 3.42826C11.5202 3.18448 10.7513 3.90004 10.3763 4.35077L10.3151 4.42268L10.2257 4.4069C9.0648 4.20522 7.88298 4.20522 6.72207 4.4069L6.63263 4.42268L6.57144 4.35077C6.24979 3.96493 5.63473 3.37915 4.87846 3.37915Z" fill="#7B413B"/>
<path d="M11.4117 7.80933C11.7089 7.80933 11.9499 7.54 11.9499 7.20776C11.9499 6.87553 11.7089 6.6062 11.4117 6.6062C11.1145 6.6062 10.8735 6.87553 10.8735 7.20776C10.8735 7.54 11.1145 7.80933 11.4117 7.80933Z" fill="#7D3D42"/>
<path d="M11.4118 7.82329C11.3035 7.82329 11.1977 7.78739 11.1076 7.72014C11.0176 7.65288 10.9474 7.55729 10.9059 7.44544C10.8645 7.3336 10.8537 7.21053 10.8748 7.09179C10.8959 6.97306 10.9481 6.864 11.0246 6.7784C11.1012 6.6928 11.1988 6.6345 11.305 6.61088C11.4112 6.58726 11.5213 6.59939 11.6214 6.64571C11.7215 6.69204 11.807 6.77049 11.8672 6.87115C11.9273 6.97181 11.9594 7.09015 11.9594 7.21121C11.9594 7.37354 11.9017 7.52923 11.7991 7.64402C11.6964 7.7588 11.5571 7.82329 11.4118 7.82329ZM11.4118 6.62017C11.3072 6.61982 11.2048 6.65419 11.1177 6.71892C11.0305 6.78365 10.9625 6.87584 10.9222 6.98381C10.882 7.09178 10.8713 7.21067 10.8915 7.32543C10.9117 7.4402 10.9619 7.54568 11.0358 7.62851C11.1097 7.71134 11.2039 7.76781 11.3065 7.79076C11.4092 7.81371 11.5156 7.8021 11.6123 7.75742C11.709 7.71274 11.7916 7.63699 11.8498 7.53975C11.908 7.44252 11.939 7.32818 11.939 7.21121C11.9395 7.13344 11.9261 7.05635 11.8998 6.98435C11.8736 6.91235 11.8348 6.84686 11.7858 6.79163C11.7369 6.7364 11.6786 6.69251 11.6144 6.66249C11.5503 6.63246 11.4814 6.61689 11.4118 6.61666V6.62017Z" fill="#D53D2C"/>
<path d="M5.48251 7.80933C5.77974 7.80933 6.02069 7.54 6.02069 7.20776C6.02069 6.87553 5.77974 6.6062 5.48251 6.6062C5.18529 6.6062 4.94434 6.87553 4.94434 7.20776C4.94434 7.54 5.18529 7.80933 5.48251 7.80933Z" fill="#7D3D42"/>
<path d="M5.48255 7.82329C5.37431 7.82294 5.26859 7.78675 5.17875 7.71928C5.08891 7.65182 5.01896 7.5561 4.97776 7.44423C4.93655 7.33235 4.92593 7.20934 4.94724 7.09072C4.96854 6.9721 5.02082 6.8632 5.09746 6.77778C5.17411 6.69235 5.27168 6.63423 5.37786 6.61075C5.48404 6.58728 5.59406 6.5995 5.69403 6.64588C5.794 6.69226 5.87943 6.77071 5.93953 6.87133C5.99963 6.97195 6.03171 7.09022 6.03171 7.2112C6.03129 7.3737 5.97325 7.52938 5.87031 7.64412C5.76736 7.75886 5.62792 7.82329 5.48255 7.82329ZM5.48255 6.62016C5.37777 6.61982 5.27526 6.65428 5.18803 6.71917C5.1008 6.78406 5.03279 6.87645 4.99262 6.98462C4.95245 7.09279 4.94194 7.21187 4.96242 7.32673C4.9829 7.44159 5.03345 7.54706 5.10765 7.62975C5.18185 7.71244 5.27636 7.76863 5.37918 7.79118C5.482 7.81373 5.58849 7.80163 5.68515 7.75641C5.7818 7.71119 5.86426 7.63489 5.92205 7.53719C5.97984 7.4395 6.01036 7.32481 6.00974 7.2077C6.00974 7.05125 5.95425 6.90118 5.85542 6.79039C5.7566 6.6796 5.62251 6.61712 5.48255 6.61666V6.62016Z" fill="#D53D2C"/>
<path d="M9.63878 8.08642C9.61529 8.07999 9.59047 8.0841 9.56965 8.09787C9.54883 8.11163 9.53366 8.13396 9.52738 8.16008C9.46462 8.42841 9.1367 8.48278 8.92488 8.43367C8.82117 8.41268 8.72677 8.3534 8.65678 8.26532C8.5868 8.17724 8.54529 8.06545 8.53889 7.94786C8.53889 7.94786 8.53889 7.93734 8.53889 7.93208V7.91279L8.52948 7.89525L8.52007 7.88122L8.50281 7.86719H8.49182H8.47143H8.46044H8.44162H8.43063H8.41023H8.39925L8.38199 7.88122V7.8935L8.37101 7.91279V7.93208C8.37101 7.93208 8.37101 7.94085 8.37101 7.94786C8.36461 8.06545 8.3231 8.17724 8.25312 8.26532C8.18314 8.3534 8.08873 8.41268 7.98503 8.43367C7.77321 8.48278 7.44528 8.43367 7.38252 8.16008C7.37628 8.1338 7.36095 8.11136 7.33991 8.09771C7.31887 8.08406 7.29385 8.08032 7.27033 8.08729C7.24682 8.09427 7.22675 8.1114 7.21454 8.13492C7.20233 8.15843 7.19898 8.18641 7.20522 8.21269C7.28367 8.54592 7.58806 8.6529 7.84225 8.6529C7.90273 8.65275 7.96309 8.64688 8.02268 8.63536C8.11385 8.61408 8.20009 8.57192 8.27597 8.51156C8.35185 8.45119 8.41573 8.37391 8.46358 8.2846C8.51106 8.37426 8.57482 8.4518 8.65077 8.51222C8.72671 8.57264 8.81314 8.61459 8.90448 8.63536C8.96354 8.64696 9.02338 8.65283 9.08335 8.6529C9.33753 8.6529 9.64192 8.54592 9.72037 8.21269C9.72334 8.19832 9.72352 8.1834 9.72091 8.16894C9.71829 8.15448 9.71294 8.14082 9.70522 8.12886C9.69749 8.1169 9.68756 8.10693 9.67611 8.09961C9.66465 8.09229 9.65192 8.08779 9.63878 8.08642Z" fill="#7D3D42"/>
<path d="M13.2352 7.62155C13.2136 7.62157 13.1927 7.61316 13.1761 7.59779C13.1595 7.58243 13.1482 7.56105 13.1441 7.53737C13.1405 7.51046 13.1463 7.48301 13.1603 7.46077C13.1743 7.43853 13.1955 7.42324 13.2195 7.41811L13.8549 7.2971C13.8668 7.29484 13.8789 7.29523 13.8906 7.29825C13.9023 7.30127 13.9134 7.30686 13.9232 7.31468C13.933 7.32251 13.9413 7.33243 13.9476 7.34386C13.9539 7.35529 13.9581 7.36801 13.96 7.38128C13.9623 7.39443 13.9622 7.40795 13.9596 7.42104C13.9571 7.43413 13.9523 7.44652 13.9454 7.45748C13.9385 7.46844 13.9298 7.47774 13.9196 7.48484C13.9095 7.49193 13.8981 7.49668 13.8863 7.49879L13.2446 7.62682L13.2352 7.62155Z" fill="#7D3D42"/>
<path d="M13.8549 8.36712C13.8455 8.36879 13.836 8.36879 13.8266 8.36712L13.2069 8.13912C13.1954 8.13497 13.1848 8.12835 13.1757 8.11963C13.1665 8.11091 13.159 8.10026 13.1536 8.08829C13.1481 8.07632 13.1448 8.06326 13.1438 8.04987C13.1429 8.03647 13.1443 8.023 13.148 8.01021C13.1517 7.99743 13.1577 7.98559 13.1655 7.97537C13.1733 7.96514 13.1828 7.95674 13.1935 7.95063C13.2042 7.94452 13.2159 7.94083 13.2279 7.93977C13.2399 7.93871 13.2519 7.9403 13.2633 7.94444L13.891 8.16718C13.9147 8.17253 13.9355 8.18819 13.9489 8.21072C13.9623 8.23325 13.9671 8.2608 13.9623 8.28732C13.9576 8.31383 13.9435 8.33713 13.9234 8.3521C13.9032 8.36706 13.8786 8.37247 13.8549 8.36712Z" fill="#7D3D42"/>
<path d="M3.68298 7.62175H3.66572L3.02869 7.49196C3.005 7.48726 2.98394 7.47225 2.97012 7.45023C2.9563 7.42821 2.95084 7.40096 2.95495 7.37446C2.95954 7.34772 2.97322 7.32402 2.99311 7.30832C3.01301 7.29263 3.03757 7.28616 3.06164 7.29027L3.70338 7.4183C3.72751 7.42063 3.74983 7.43358 3.76543 7.4543C3.78102 7.47502 3.78861 7.50182 3.78653 7.52879C3.78445 7.55577 3.77287 7.58072 3.75433 7.59815C3.73579 7.61559 3.71182 7.62407 3.68768 7.62175H3.68298Z" fill="#7D3D42"/>
<path d="M3.06177 8.36692C3.04261 8.36687 3.02395 8.36006 3.00846 8.34747C2.99296 8.33487 2.98142 8.31713 2.97547 8.29677C2.96952 8.27255 2.97166 8.24675 2.98147 8.22416C2.99129 8.20157 3.00811 8.18374 3.02882 8.174L3.65643 7.95126C3.67932 7.94295 3.70422 7.94512 3.72569 7.95728C3.74715 7.96944 3.76343 7.99061 3.77097 8.01616C3.77846 8.04198 3.77656 8.07005 3.76571 8.09433C3.75485 8.1186 3.73589 8.13714 3.71292 8.14594L3.0853 8.36868C3.07742 8.36925 3.06951 8.36866 3.06177 8.36692Z" fill="#7D3D42"/>
<path d="M12.0052 8.52303C12.3085 8.52303 12.5544 8.37698 12.5544 8.19682C12.5544 8.01666 12.3085 7.87061 12.0052 7.87061C11.7019 7.87061 11.4561 8.01666 11.4561 8.19682C11.4561 8.37698 11.7019 8.52303 12.0052 8.52303Z" fill="#F397B7"/>
<path d="M4.91928 8.52303C5.22257 8.52303 5.46844 8.37698 5.46844 8.19682C5.46844 8.01666 5.22257 7.87061 4.91928 7.87061C4.61598 7.87061 4.37012 8.01666 4.37012 8.19682C4.37012 8.37698 4.61598 8.52303 4.91928 8.52303Z" fill="#F397B7"/>
</g>
<defs>
<filter id="filter0_d" x="0" y="0.75" width="17.4508" height="17" filterUnits="userSpaceOnUse" color-interpolation-filters="sRGB">
<feFlood flood-opacity="0" result="BackgroundImageFix"/>
<feColorMatrix in="SourceAlpha" type="matrix" values="0 0 0 0 0 0 0 0 0 0 0 0 0 0 0 0 0 0 127 0"/>
<feOffset dx="0.5" dy="0.5"/>
<feColorMatrix type="matrix" values="0 0 0 0 0 0 0 0 0 0 0 0 0 0 0 0 0 0 0.25 0"/>
<feBlend mode="normal" in2="BackgroundImageFix" result="effect1_dropShadow"/>
<feBlend mode="normal" in="SourceGraphic" in2="effect1_dropShadow" result="shape"/>
</filter>
</defs>
</svg>
