<svg width="35" height="39" viewBox="0 0 35 39" fill="none" xmlns="http://www.w3.org/2000/svg">
<path d="M0.401067 19.7784C0.401067 14.8318 8.06521 10.8363 17.5181 10.8363C26.9709 10.8363 34.6351 14.848 34.6351 19.7784V29.6717C34.6222 30.0119 34.5738 30.3498 34.4907 30.6797C33.5402 35.1427 26.2931 38.6139 17.498 38.6139C8.70289 38.6139 1.45584 35.1427 0.493309 30.6797C0.425844 30.3482 0.394906 30.0101 0.401067 29.6717V19.7825V19.7784Z" fill="#FFD087"/>
<path d="M17.498 39.0203C8.61063 39.0203 1.13899 35.4597 0.120316 30.761C0.0414437 30.4034 0.00110209 30.0381 0 29.6717L0 19.7784C0 14.6245 7.84863 10.4298 17.498 10.4298C27.1474 10.4298 35 14.6326 35 19.7784V29.6717C35.0001 30.0436 34.9597 30.4143 34.8797 30.7773C33.861 35.4597 26.3894 39.0203 17.498 39.0203ZM17.498 11.2305C8.26974 11.2102 0.762003 15.0391 0.762003 19.7784V29.6717C0.763186 29.9874 0.796788 30.302 0.862267 30.6106C1.80875 34.9557 8.95955 38.2277 17.498 38.2277C26.0364 38.2277 33.1912 34.9557 34.1337 30.5944C34.2 30.2914 34.2336 29.982 34.234 29.6717V19.7784C34.234 15.0391 26.7263 11.2102 17.498 11.2102V11.2305Z" fill="#7B413B"/>
<path d="M0.433137 19.7784C0.433137 21.7024 0.422442 23.6249 0.401053 25.5461C0.401053 27.1354 0.16042 29.0173 1.8248 29.9359C1.90514 29.9818 1.99381 30.0109 2.08548 30.0213C3.5012 30.1635 3.6897 27.5825 5.39418 28.9401C6.33665 29.7002 6.62942 31.0456 7.29116 32.017C7.87931 32.9589 8.74098 33.6931 9.75765 34.1184C12.164 34.9882 13.5596 32.9966 15.5649 32.1999C16.1731 31.94 16.8528 31.9083 17.482 32.1105C18.2841 32.3991 18.8094 33.1348 19.4872 33.6388C21.2238 34.9354 23.6421 34.4111 25.0579 32.8909C25.7597 32.1389 26.4736 31.2854 27.4642 31.0415C28.7636 30.7244 30.055 31.4479 31.3584 31.0008C32.6619 30.5537 33.6845 29.4075 34.2741 28.1556C34.3784 27.9402 34.4746 27.7166 34.5588 27.489V19.7662C34.5588 14.8196 26.9188 10.8241 17.494 10.8241C8.06921 10.8241 0.433137 14.8318 0.433137 19.7784Z" fill="white"/>
<path d="M0.18048 19.7784C0.18048 22.1725 0.0681853 24.5787 0.132354 26.9687C0.104637 27.7553 0.294983 28.534 0.681798 29.2165C1.04275 29.7774 1.70048 30.3871 2.41034 30.2651C2.92123 30.1135 3.36648 29.7912 3.67366 29.3506C4.13889 28.8385 4.54395 28.619 5.15756 29.0783C5.95967 29.6839 6.29255 30.7041 6.76178 31.5902C7.19437 32.4294 7.80363 33.1621 8.54647 33.7363C9.29266 34.324 10.2214 34.6224 11.1654 34.5777C11.9839 34.4722 12.7659 34.1713 13.4474 33.6997C14.2495 33.2039 15.0516 32.5901 15.97 32.33C16.2631 32.2358 16.5719 32.2027 16.878 32.2328C17.184 32.2628 17.4809 32.3553 17.7507 32.5047C18.1843 32.8001 18.5875 33.1392 18.9538 33.5168C19.6302 34.109 20.4688 34.4776 21.3575 34.5735C22.2463 34.6694 23.1427 34.4879 23.9269 34.0534C24.8132 33.5859 25.3867 32.834 26.1006 32.1471C26.4627 31.7711 26.9023 31.481 27.388 31.2976C27.9693 31.156 28.5737 31.1422 29.1607 31.2569C30.2395 31.387 31.21 31.4317 32.1886 30.8789C33.0225 30.3787 33.7136 29.6671 34.1939 28.8141C34.5188 28.3724 34.7297 27.8554 34.8075 27.3102C34.8075 26.9403 34.8075 26.5663 34.8075 26.1965C34.8075 24.0666 34.8075 21.9408 34.8075 19.815C34.8075 17.1811 32.8704 15.1691 30.797 13.8481C27.5203 11.7874 23.5098 10.8932 19.6878 10.6371C15.4647 10.3526 11.0571 10.82 7.10268 12.4011C4.46775 13.4539 1.52 15.1813 0.489292 18.0266C0.288767 18.5885 0.184331 19.1809 0.18048 19.7784C0.188281 19.8413 0.218461 19.8991 0.265352 19.9411C0.312243 19.983 0.372621 20.0061 0.43515 20.0061C0.497678 20.0061 0.558057 19.983 0.604948 19.9411C0.651839 19.8991 0.682019 19.8413 0.689819 19.7784C0.717893 16.9332 3.18438 14.9375 5.44632 13.7303C8.89539 11.8849 12.926 11.1696 16.7921 11.0883C20.7586 11.0029 24.8854 11.5679 28.531 13.2263C30.9373 14.3156 33.7166 16.1406 34.238 18.9696C34.3211 19.6435 34.3452 20.3236 34.3102 21.0019V24.5218C34.3102 25.4364 34.3543 26.359 34.3102 27.2736C34.2051 27.8386 33.9624 28.3681 33.6043 28.8141C33.066 29.7017 32.2478 30.3791 31.2822 30.7366C30.1914 31.0862 29.0724 30.6147 27.9655 30.6919C27.0893 30.7794 26.2749 31.1885 25.6755 31.8422C24.9817 32.5129 24.4202 33.2445 23.5339 33.6754C22.6567 34.1153 21.6511 34.2151 20.7064 33.9558C19.7519 33.6794 19.1624 32.9518 18.4084 32.3544C18.0523 32.0609 17.6307 31.8604 17.1804 31.7704C16.7301 31.6804 16.2649 31.7037 15.8256 31.8381C14.2214 32.2934 13.0182 33.7851 11.3418 34.0412C9.23227 34.3663 7.69624 32.4478 6.8821 30.7366C6.42489 29.7815 5.37413 27.7207 3.99852 28.3954C3.54131 28.619 3.26459 29.0742 2.90364 29.4156C2.73229 29.6061 2.50144 29.731 2.24992 29.7693C1.79673 29.7977 1.33552 29.31 1.10692 28.9563C0.653724 28.2613 0.62164 27.3833 0.625651 26.5785C0.625651 25.5055 0.653724 24.4324 0.661745 23.3594C0.661745 22.1644 0.661745 20.9734 0.661745 19.7784C0.643512 19.7286 0.610683 19.6857 0.567667 19.6554C0.524651 19.6251 0.473509 19.6088 0.421113 19.6088C0.368717 19.6088 0.317575 19.6251 0.274559 19.6554C0.231543 19.6857 0.198714 19.7286 0.18048 19.7784Z" fill="#7B413B"/>
<path d="M17.498 29.0417C7.89274 29.0417 0.0802002 24.8836 0.0802002 19.7784H0.681782C0.681782 24.5503 8.22561 28.4523 17.498 28.4523C26.7704 28.4523 34.3142 24.5503 34.3142 19.7784H34.9158C34.9158 24.8836 27.1032 29.0417 17.498 29.0417Z" fill="#7B413B"/>
<path d="M30.4159 8.94216C30.4159 5.19865 24.6327 2.16238 17.498 2.16238C10.3632 2.16238 4.58405 5.18646 4.58405 8.94216V16.4048C4.58385 16.6646 4.6121 16.9236 4.66827 17.1771C5.39819 20.5588 10.8646 23.1683 17.498 23.1683C24.1314 23.1683 29.6018 20.5426 30.3317 17.1608C30.3846 16.9069 30.4115 16.6481 30.4119 16.3885V8.94216H30.4159Z" fill="#FFD087"/>
<path d="M17.498 23.5748C10.7483 23.5748 5.06532 20.8637 4.29529 17.2665C4.23461 16.9848 4.20369 16.6973 4.20305 16.4089V8.94217C4.20305 4.99136 10.1667 1.77625 17.498 1.77625C24.8293 1.77625 30.797 4.97916 30.797 8.94217V16.4048C30.796 16.6932 30.7651 16.9806 30.7047 17.2624C29.9267 20.8596 24.2477 23.5748 17.498 23.5748ZM17.498 2.54039C10.5878 2.53633 4.96505 5.40595 4.96505 8.94217V16.4048C4.9644 16.6373 4.98997 16.8692 5.04125 17.0958C5.73107 20.2946 11.2055 22.7863 17.498 22.7863C23.7905 22.7863 29.277 20.2946 29.9587 17.0958C30.0068 16.8687 30.031 16.6371 30.0309 16.4048V8.94217C30.0309 5.40595 24.4082 2.53633 17.498 2.53633V2.54039Z" fill="#7B413B"/>
<path d="M30.4159 8.94216C30.4159 10.3973 30.424 11.8524 30.44 13.3076C30.44 14.5066 30.6205 15.9333 29.3612 16.6284C29.3009 16.6639 29.234 16.686 29.1646 16.6934C28.0938 16.7991 27.9615 14.8359 26.6621 15.8805C25.9482 16.4536 25.7236 17.4738 25.2223 18.2095C24.7773 18.9215 24.1259 19.4767 23.3574 19.7988C21.5526 20.4572 20.4818 18.9493 18.9458 18.3477C18.4871 18.145 17.9719 18.1161 17.494 18.2664C16.8924 18.4818 16.4873 19.0427 15.974 19.4248C14.6625 20.4044 12.8297 20.0101 11.7589 18.8598C11.2255 18.2867 10.6881 17.6404 9.9341 17.4575C8.95152 17.2177 7.97295 17.7502 6.98635 17.4291C6.0109 17.028 5.23017 16.2542 4.81264 15.2748C4.73243 15.1082 4.66024 14.9375 4.59607 14.7668V8.94216C4.59607 5.19865 10.3793 2.16238 17.51 2.16238C24.6408 2.16238 30.4159 5.18646 30.4159 8.94216Z" fill="white"/>
<path d="M30.1593 8.94216C30.1593 10.6534 30.1914 12.3646 30.1994 14.0717C30.254 14.6896 30.1241 15.3099 29.8264 15.852C29.6499 16.1081 29.3131 16.4617 28.9762 16.4007C28.7802 16.3515 28.6047 16.2405 28.4748 16.0837C28.2603 15.7905 27.9869 15.5467 27.6727 15.3683C27.4766 15.3084 27.2684 15.3021 27.0691 15.3499C26.8698 15.3977 26.6865 15.498 26.5378 15.6406C26.0745 16.0599 25.7146 16.5833 25.487 17.1689C25.1946 17.8464 24.7673 18.4553 24.2317 18.9574C23.9417 19.2345 23.5925 19.4399 23.2112 19.5576C22.83 19.6754 22.4271 19.7023 22.0339 19.6362C21.4142 19.4556 20.8314 19.1637 20.3134 18.7745C19.2025 18.0672 17.9392 17.4738 16.7641 18.4005C16.1986 18.8476 15.7574 19.3923 15.0395 19.6199C14.3329 19.8078 13.583 19.7284 12.93 19.3964C11.6907 18.7826 11.1092 17.2665 9.60926 17.1446C8.76303 17.0755 7.91681 17.4372 7.07861 17.1771C6.33647 16.902 5.71236 16.3729 5.31397 15.6813C5.07141 15.3686 4.90884 15 4.84072 14.6082C4.84072 14.3359 4.84072 14.0514 4.84072 13.7953V9.06816C4.84072 7.22689 6.11608 5.84899 7.56789 4.90193C9.9301 3.3655 12.8297 2.69891 15.589 2.48348C18.681 2.2032 21.7967 2.57975 24.737 3.58906C26.7182 4.30037 29.0844 5.53601 29.9106 7.65368C30.0708 8.06407 30.1551 8.50084 30.1593 8.94216C30.1671 9.00504 30.1973 9.06286 30.2441 9.10479C30.291 9.14671 30.3514 9.16984 30.4139 9.16984C30.4765 9.16984 30.5368 9.14671 30.5837 9.10479C30.6306 9.06286 30.6608 9.00504 30.6686 8.94216C30.6405 6.75946 28.904 5.14581 27.1554 4.14185C24.5405 2.62981 21.4404 2.03231 18.4485 1.91037C15.2722 1.73357 12.0966 2.26929 9.14805 3.47931C7.21095 4.32475 5.0212 5.73924 4.45571 7.95039C4.34237 8.50758 4.30058 9.07729 4.33138 9.64534V12.454C4.33138 13.1856 4.27925 13.9376 4.33138 14.6651C4.40363 15.0756 4.56832 15.4637 4.81265 15.7992C5.16187 16.4081 5.64667 16.9259 6.22837 17.3112C6.91259 17.7219 7.7208 17.8663 8.50235 17.7177C8.91902 17.6405 9.34442 17.6241 9.76567 17.6689C10.2478 17.7752 10.686 18.0292 11.021 18.3965C11.5584 18.9208 12.0036 19.4858 12.6894 19.8272C13.2712 20.1277 13.923 20.2612 14.5743 20.2133C15.2032 20.1591 15.8014 19.9141 16.2908 19.5102C17.0127 18.9208 17.5461 18.2298 18.5808 18.4899C19.9244 18.8232 20.8588 20.0914 22.2866 20.2052C23.7143 20.319 25.0017 19.185 25.6635 17.9656C26.0244 17.3031 26.257 16.4739 26.8947 16.0146C27.4 15.6569 27.6647 15.9577 28.0096 16.3357C28.2562 16.6709 28.6241 16.8931 29.0323 16.9535C29.5537 16.9779 30.039 16.5105 30.2956 16.0878C30.5842 15.5502 30.7228 14.9432 30.6967 14.3318C30.6967 13.5189 30.6967 12.706 30.6686 11.9175C30.6686 10.9257 30.6686 9.93393 30.6686 8.94216C30.6608 8.87928 30.6306 8.82145 30.5837 8.77953C30.5368 8.73761 30.4765 8.71448 30.4139 8.71448C30.3514 8.71448 30.291 8.73761 30.2441 8.77953C30.1973 8.82145 30.1671 8.87928 30.1593 8.94216Z" fill="#7B413B"/>
<path d="M28.7596 5.60511C28.7596 4.11746 28.134 1.02022 26.1487 0.544662C23.955 0.0243909 22.1703 1.54456 21.3321 2.43877C18.7931 2.03231 16.2069 2.03231 13.6679 2.43877C12.8257 1.5283 11.041 3.15905e-06 8.85529 0.528403C6.87007 1.00396 6.23239 4.1012 6.24844 5.58885C5.18564 6.58875 4.58406 7.72278 4.58406 8.94216C4.58406 12.6857 10.3673 15.7179 17.498 15.7179C24.6287 15.7179 30.412 12.6735 30.412 8.94216C30.412 7.72278 29.8104 6.58875 28.7596 5.60511Z" fill="white"/>
<path d="M17.498 16.1447C10.0264 16.1447 4.15091 12.9743 4.15091 8.94216C4.15091 7.72278 4.72442 6.50339 5.81127 5.42627C5.84737 4.02398 6.41687 0.674733 8.751 0.11788C11.0129 -0.406455 12.8337 0.983643 13.8243 1.9876C16.2615 1.6218 18.7385 1.6218 21.1757 1.9876C22.1542 0.983643 23.983 -0.406455 26.249 0.11788C28.3585 0.621893 29.1566 3.55248 29.1887 5.40188C30.2756 6.46275 30.8451 7.674 30.8451 8.91371C30.8451 12.9743 24.9817 16.1447 17.498 16.1447ZM9.74963 0.877963C9.47959 0.8776 9.21042 0.908971 8.94752 0.97145C7.20694 1.37791 6.6575 4.32476 6.67354 5.60105V5.79615L6.53317 5.93028C5.54257 6.85295 5.01719 7.88943 5.01719 8.92997C5.01719 12.4255 10.6319 15.2708 17.498 15.2708C24.364 15.2708 29.9828 12.4255 29.9828 8.92997C29.9828 7.88943 29.4574 6.85295 28.4668 5.93028L28.3224 5.79615V5.60105C28.3224 4.32476 27.785 1.38604 26.0445 0.97145C24.0633 0.504019 22.459 1.88599 21.6569 2.75175L21.4965 2.92247L21.2559 2.88588C18.7617 2.49163 16.2223 2.49163 13.7281 2.88588L13.4995 2.92247L13.3431 2.75175C12.6613 2.00793 11.3538 0.877963 9.74963 0.877963Z" fill="#7B413B"/>
<path d="M23.8266 9.46243C24.4668 9.46243 24.9857 8.93651 24.9857 8.28776C24.9857 7.639 24.4668 7.11308 23.8266 7.11308C23.1865 7.11308 22.6676 7.639 22.6676 8.28776C22.6676 8.93651 23.1865 9.46243 23.8266 9.46243Z" fill="#7D3D42"/>
<path d="M23.8266 9.48682C23.5935 9.48282 23.3668 9.4091 23.1749 9.27494C22.983 9.14077 22.8345 8.95213 22.748 8.73271C22.6615 8.51329 22.6409 8.27286 22.6888 8.04162C22.7367 7.81038 22.8509 7.59864 23.0172 7.43297C23.1834 7.26731 23.3942 7.15511 23.6231 7.11046C23.8521 7.06582 24.0889 7.09072 24.304 7.18205C24.519 7.27337 24.7026 7.42704 24.8317 7.62376C24.9609 7.82048 25.0298 8.05148 25.0298 8.28776C25.0245 8.60762 24.8955 8.91258 24.6704 9.13688C24.4453 9.36119 24.1423 9.48686 23.8266 9.48682ZM23.8266 7.13747C23.602 7.13667 23.3822 7.20345 23.195 7.32935C23.0078 7.45526 22.8617 7.63462 22.7752 7.84474C22.6887 8.05485 22.6656 8.28626 22.709 8.50967C22.7523 8.73307 22.8601 8.93841 23.0186 9.09969C23.1772 9.26096 23.3794 9.37092 23.5997 9.41564C23.82 9.46035 24.0484 9.43781 24.256 9.35087C24.4637 9.26393 24.6412 9.11649 24.766 8.92724C24.8909 8.73799 24.9576 8.51544 24.9576 8.28776C24.9576 7.98339 24.8386 7.69142 24.6266 7.47582C24.4146 7.26021 24.127 7.13855 23.8266 7.13747Z" fill="#D53D2C"/>
<path d="M11.0531 9.46243C11.6932 9.46243 12.2121 8.93651 12.2121 8.28776C12.2121 7.639 11.6932 7.11308 11.0531 7.11308C10.4129 7.11308 9.89401 7.639 9.89401 8.28776C9.89401 8.93651 10.4129 9.46243 11.0531 9.46243Z" fill="#7D3D42"/>
<path d="M11.0531 9.48682C10.82 9.48282 10.5932 9.4091 10.4013 9.27494C10.2094 9.14077 10.0609 8.95213 9.97441 8.73271C9.88793 8.51329 9.86734 8.27286 9.91523 8.04162C9.96312 7.81038 10.0774 7.59864 10.2436 7.43297C10.4098 7.26731 10.6206 7.15511 10.8496 7.11046C11.0785 7.06582 11.3154 7.09072 11.5304 7.18205C11.7454 7.27337 11.929 7.42704 12.0581 7.62376C12.1873 7.82048 12.2562 8.05148 12.2562 8.28776C12.251 8.60762 12.1219 8.91258 11.8968 9.13688C11.6717 9.36119 11.3687 9.48686 11.0531 9.48682ZM11.0531 7.13747C10.8284 7.13667 10.6086 7.20345 10.4214 7.32935C10.2342 7.45526 10.0881 7.63462 10.0016 7.84474C9.91509 8.05485 9.89205 8.28626 9.93538 8.50967C9.97872 8.73307 10.0865 8.93841 10.2451 9.09969C10.4036 9.26096 10.6059 9.37092 10.8261 9.41564C11.0464 9.46035 11.2748 9.43781 11.4825 9.35087C11.6901 9.26393 11.8676 9.11649 11.9925 8.92724C12.1174 8.73799 12.184 8.51544 12.184 8.28776C12.184 7.98339 12.065 7.69142 11.853 7.47582C11.641 7.26021 11.3534 7.13855 11.0531 7.13747Z" fill="#D53D2C"/>
<path d="M16.0863 11.1533C15.7895 11.1837 15.4913 11.1126 15.2391 10.9513C14.9869 10.79 14.7952 10.5477 14.6946 10.2632C14.6786 10.2023 14.6868 10.1374 14.7176 10.0827C14.7484 10.0279 14.7992 9.98761 14.859 9.97051C14.9196 9.9555 14.9836 9.96491 15.0375 9.99675C15.0913 10.0286 15.1309 10.0804 15.1478 10.1412C15.2761 10.6412 15.9499 10.7387 16.4031 10.6493C16.6194 10.6102 16.8163 10.4982 16.9619 10.3315C17.1075 10.1647 17.1933 9.95303 17.2052 9.7307C17.2103 9.6689 17.2384 9.61138 17.2839 9.56985C17.3293 9.52832 17.3887 9.5059 17.4499 9.50714C17.5119 9.51031 17.5703 9.53809 17.6123 9.58448C17.6543 9.63087 17.6766 9.69215 17.6745 9.75509C17.6544 10.0819 17.5277 10.3927 17.3142 10.6384C17.1007 10.8842 16.8127 11.0511 16.4954 11.1127C16.3608 11.1407 16.2237 11.1543 16.0863 11.1533Z" fill="#7D3D42"/>
<path d="M18.7894 11.1533C18.6547 11.1535 18.5203 11.1398 18.3883 11.1127C18.07 11.0525 17.7806 10.8862 17.5662 10.6403C17.3519 10.3943 17.2248 10.0827 17.2052 9.75509C17.203 9.724 17.2071 9.69279 17.2171 9.66331C17.2271 9.63384 17.2429 9.60672 17.2635 9.58357C17.2841 9.56042 17.3091 9.54172 17.337 9.52859C17.3648 9.51546 17.3951 9.50817 17.4258 9.50715C17.4874 9.50583 17.5472 9.52811 17.5933 9.56956C17.6394 9.611 17.6684 9.66855 17.6745 9.73071C17.6857 9.95327 17.7712 10.1654 17.9169 10.3322C18.0626 10.4991 18.26 10.6109 18.4766 10.6493C18.9097 10.7347 19.6075 10.6493 19.7359 10.1412C19.7435 10.1111 19.7569 10.0827 19.7754 10.0578C19.7938 10.0329 19.8169 10.012 19.8434 9.99611C19.8698 9.98025 19.8991 9.96984 19.9295 9.96544C19.9599 9.96105 19.9909 9.96278 20.0206 9.97052C20.0504 9.97826 20.0783 9.99186 20.1029 10.0106C20.1275 10.0292 20.1482 10.0527 20.1638 10.0795C20.1795 10.1063 20.1897 10.1359 20.1941 10.1667C20.1984 10.1976 20.1967 10.2289 20.1891 10.2591C20.0883 10.5455 19.8955 10.7893 19.6417 10.9514C19.3879 11.1136 19.0878 11.1847 18.7894 11.1533Z" fill="#7D3D42"/>
<path d="M27.7529 9.13321C27.6952 9.1325 27.6398 9.11007 27.5975 9.07028C27.5552 9.03049 27.529 8.97618 27.524 8.9179C27.519 8.85962 27.5356 8.80154 27.5705 8.75495C27.6054 8.70835 27.6561 8.67657 27.7128 8.66578L29.0965 8.41377C29.1576 8.40299 29.2205 8.41728 29.2713 8.45348C29.3221 8.48969 29.3565 8.54486 29.3672 8.60684C29.3778 8.66883 29.3637 8.73256 29.328 8.78401C29.2923 8.83546 29.2378 8.87042 29.1767 8.8812L27.7931 9.13321H27.7529Z" fill="#7D3D42"/>
<path d="M29.0925 10.5924C29.0686 10.5963 29.0442 10.5963 29.0203 10.5924L27.6728 10.1615C27.6143 10.142 27.5659 10.0998 27.5381 10.0442C27.5103 9.98862 27.5054 9.92412 27.5244 9.86482C27.5437 9.8055 27.5851 9.75617 27.6398 9.72732C27.6945 9.69847 27.7581 9.69239 27.8171 9.71037L29.1526 10.1493C29.2079 10.1643 29.2557 10.1993 29.2871 10.2477C29.3184 10.2962 29.3311 10.3546 29.3227 10.4119C29.3143 10.4692 29.2853 10.5213 29.2414 10.5584C29.1974 10.5954 29.1416 10.6147 29.0845 10.6127L29.0925 10.5924Z" fill="#7D3D42"/>
<path d="M7.17486 9.1332H7.13075L5.74711 8.88119C5.68672 8.86839 5.63349 8.83258 5.59841 8.78114C5.56333 8.7297 5.54908 8.66657 5.55862 8.6048C5.57032 8.54309 5.60545 8.48851 5.65645 8.45278C5.70745 8.41706 5.77024 8.40305 5.83133 8.41376L7.21497 8.66577C7.2717 8.67656 7.32244 8.70834 7.35734 8.75494C7.39223 8.80153 7.40879 8.85961 7.40379 8.91789C7.39879 8.97617 7.37259 9.03048 7.33028 9.07027C7.28797 9.11006 7.23258 9.13249 7.17486 9.1332Z" fill="#7D3D42"/>
<path d="M5.83534 10.5924C5.78122 10.5895 5.72972 10.5678 5.68947 10.531C5.64922 10.4942 5.62265 10.4446 5.61419 10.3903C5.60574 10.3361 5.61592 10.2805 5.64303 10.2329C5.67015 10.1854 5.71255 10.1487 5.76315 10.129L7.10267 9.69004C7.1617 9.67207 7.22533 9.67815 7.28001 9.707C7.33469 9.73584 7.3761 9.78518 7.39544 9.8445C7.40476 9.87412 7.40821 9.90532 7.40559 9.9363C7.40297 9.96727 7.39432 9.99742 7.38016 10.025C7.36599 10.0526 7.34659 10.077 7.32305 10.097C7.29952 10.1169 7.27233 10.132 7.24304 10.1412L5.90753 10.568C5.88498 10.5802 5.86057 10.5884 5.83534 10.5924Z" fill="#7D3D42"/>
<path d="M25.102 10.8566C25.7554 10.8566 26.2851 10.5727 26.2851 10.2225C26.2851 9.87233 25.7554 9.58844 25.102 9.58844C24.4486 9.58844 23.9189 9.87233 23.9189 10.2225C23.9189 10.5727 24.4486 10.8566 25.102 10.8566Z" fill="#F397B7"/>
<path d="M9.83786 10.8566C10.4913 10.8566 11.021 10.5727 11.021 10.2225C11.021 9.87233 10.4913 9.58844 9.83786 9.58844C9.18445 9.58844 8.65475 9.87233 8.65475 10.2225C8.65475 10.5727 9.18445 10.8566 9.83786 10.8566Z" fill="#F397B7"/>
</svg>
