<svg width="24" height="24" viewBox="0 0 24 24" fill="none" xmlns="http://www.w3.org/2000/svg">
<path d="M7.25 4H5.75C4.7835 4 4 4.7835 4 5.75V7.25C4 8.2165 4.7835 9 5.75 9H7.25C8.2165 9 9 8.2165 9 7.25V5.75C9 4.7835 8.2165 4 7.25 4Z" fill="#6EA3AA"/>
<path d="M7.25 11H5.75C4.7835 11 4 11.7835 4 12.75V14.25C4 15.2165 4.7835 16 5.75 16H7.25C8.2165 16 9 15.2165 9 14.25V12.75C9 11.7835 8.2165 11 7.25 11Z" fill="#6EA3AA"/>
<path d="M14.25 4H12.75C11.7835 4 11 4.7835 11 5.75V7.25C11 8.2165 11.7835 9 12.75 9H14.25C15.2165 9 16 8.2165 16 7.25V5.75C16 4.7835 15.2165 4 14.25 4Z" fill="#6EA3AA"/>
<path d="M18.2 11H12.8C11.8059 11 11 11.8059 11 12.8V18.2C11 19.1941 11.8059 20 12.8 20H18.2C19.1941 20 20 19.1941 20 18.2V12.8C20 11.8059 19.1941 11 18.2 11Z" fill="#6EA3AA"/>
</svg>
