<svg width="26" height="26" viewBox="0 0 26 26" fill="none" xmlns="http://www.w3.org/2000/svg">
<rect width="26" height="26" rx="7" fill="#5B5A99" fill-opacity="0.75"/>
<path d="M20.4286 12.4286H11.2046C10.8947 11.211 9.65646 10.4752 8.43888 10.7851C7.63143 10.9906 7.00092 11.6211 6.79541 12.4286H5.57144C5.25584 12.4286 5 12.6844 5 13C5 13.3156 5.25584 13.5714 5.57144 13.5714H6.79544C7.10532 14.789 8.34356 15.5248 9.56113 15.2149C10.3686 15.0094 10.9991 14.3789 11.2046 13.5714H20.4286C20.7442 13.5714 21 13.3156 21 13C21 12.6844 20.7442 12.4286 20.4286 12.4286ZM9.00001 14.1429C8.36884 14.1429 7.85716 13.6312 7.85716 13C7.85716 12.3689 8.36884 11.8572 9.00001 11.8572C9.63118 11.8572 10.1429 12.3689 10.1429 13C10.1429 13.6312 9.63118 14.1429 9.00001 14.1429Z" fill="white"/>
<path d="M20.4286 6.7143H18.6331C18.3233 5.49675 17.085 4.76095 15.8675 5.07083C15.06 5.27634 14.4295 5.90684 14.224 6.7143H5.57144C5.25584 6.7143 5 6.97013 5 7.28573C5 7.60134 5.25584 7.85717 5.57144 7.85717H14.224C14.5339 9.07472 15.7721 9.81052 16.9897 9.50064C17.7971 9.29513 18.4276 8.66463 18.6331 7.85717H20.4286C20.7442 7.85717 21 7.60134 21 7.28573C21 6.97013 20.7442 6.7143 20.4286 6.7143ZM16.4286 8.42858C15.7974 8.42858 15.2857 7.91691 15.2857 7.28573C15.2857 6.65456 15.7974 6.14289 16.4286 6.14289C17.0598 6.14289 17.5714 6.65456 17.5714 7.28573C17.5714 7.91691 17.0598 8.42858 16.4286 8.42858Z" fill="white"/>
<path d="M20.4286 18.1429H17.4903C17.1804 16.9253 15.9422 16.1895 14.7246 16.4994C13.9171 16.7049 13.2866 17.3354 13.0811 18.1429H5.57144C5.25584 18.1429 5 18.3987 5 18.7143C5 19.0298 5.25584 19.2857 5.57144 19.2857H13.0811C13.391 20.5032 14.6293 21.239 15.8468 20.9292C16.6543 20.7237 17.2848 20.0932 17.4903 19.2857H20.4286C20.7442 19.2857 21 19.0299 21 18.7143C21 18.3987 20.7442 18.1429 20.4286 18.1429ZM15.2857 19.8571C14.6545 19.8571 14.1429 19.3455 14.1429 18.7143C14.1429 18.0831 14.6545 17.5715 15.2857 17.5715C15.9169 17.5715 16.4285 18.0831 16.4285 18.7143C16.4285 19.3455 15.9169 19.8571 15.2857 19.8571Z" fill="white"/>
</svg>
