<svg width="420" height="660" viewBox="0 0 420 660" fill="none" xmlns="http://www.w3.org/2000/svg">
<path d="M4.81247 106.571C4.81247 50.1348 96.5416 4.63354 209.976 4.63354C323.41 4.63354 415.38 50.3665 415.38 106.571V553.522C415.331 557.485 414.831 561.432 413.888 565.291C402.289 616.259 315.325 655.784 209.783 655.784C104.242 655.784 17.5179 616.259 5.91938 565.291C5.07828 561.406 4.70684 557.442 4.81247 553.475V106.571Z" fill="white"/>
<path d="M209.976 660C103.328 660 13.6679 619.596 1.4438 566.078C0.485682 561.941 0.00152567 557.714 0 553.475L0 106.571C0 47.7717 94.1836 0 209.976 0C325.768 0 420 47.7717 420 106.571V553.521C419.998 557.761 419.514 561.987 418.556 566.125C406.332 619.596 316.672 660 209.976 660ZM209.976 8.80371C99.2369 8.80371 9.14404 52.6369 9.14404 106.571V553.521C9.161 557.12 9.5642 560.706 10.3472 564.225C21.7051 613.804 107.515 651.243 209.976 651.243C312.437 651.243 398.295 613.804 409.605 564.225C410.412 560.71 410.815 557.121 410.808 553.521V106.571C410.808 52.6369 320.715 8.80371 209.976 8.80371Z" fill="#5B5A99"/>
<path d="M5.19777 106.571C5.19777 128.503 5.06943 150.42 4.81276 172.321C4.81276 190.345 1.92516 211.845 21.8977 222.409C22.8618 222.933 23.9258 223.264 25.0259 223.382C42.0145 225.004 44.2765 195.581 64.7303 211.057C76.04 219.722 79.5532 235.059 87.4941 246.133C94.5546 256.858 104.895 265.211 117.092 270.042C145.968 279.958 162.716 257.254 186.779 248.218C194.054 245.195 202.211 244.767 209.784 247.014C219.409 250.257 225.713 258.69 233.847 264.436C254.686 279.124 283.947 273.378 300.695 255.817C309.117 247.199 317.683 237.283 329.57 234.735C345.163 231.12 360.66 239.368 376.301 234.271C391.942 229.174 404.215 216.108 411.289 201.837C412.541 199.334 413.696 196.786 414.706 194.238V106.571C414.706 50.1811 323.025 4.63354 209.928 4.63354C96.8306 4.63354 5.19777 50.1348 5.19777 106.571Z" fill="#B5F5E7"/>
<path d="M2.16577 106.571C2.16577 133.863 0.818224 161.247 1.58825 188.538C1.26469 197.489 3.54854 206.349 8.18158 214.115C12.513 220.51 20.4057 227.46 28.9241 226.07C35.0547 224.342 40.3977 220.667 44.084 215.645C49.6666 209.806 54.5274 207.304 61.8908 212.54C71.5161 219.444 75.5106 231.306 81.1414 241.175C86.3708 250.772 93.752 259.129 102.75 265.64C111.694 272.358 122.846 275.762 134.177 275.232C143.991 274.027 153.372 270.614 161.561 265.27C171.186 259.617 180.811 252.62 191.832 249.655C195.348 248.585 199.051 248.206 202.722 248.54C206.392 248.874 209.956 249.915 213.201 251.601C218.394 254.999 223.23 258.879 227.638 263.185C235.753 269.939 245.821 274.141 256.489 275.226C267.156 276.311 277.914 274.228 287.315 269.254C297.951 263.926 304.833 255.354 313.4 247.57C317.719 243.309 322.984 240.046 328.8 238.024C335.775 236.42 343.023 236.246 350.072 237.515C363.018 239.044 374.665 239.554 386.408 233.252C396.415 227.55 404.708 219.437 410.471 209.714C414.361 204.673 416.891 198.783 417.834 192.57C417.834 188.307 417.834 184.09 417.834 179.827C417.834 155.594 417.834 131.361 417.834 107.127C417.834 77.0557 394.589 54.166 369.708 39.0607C330.244 15.2444 282.118 5.23593 236.253 2.3168C185.576 -0.92667 132.685 4.63357 85.2321 22.38C53.613 34.3808 18.24 54.1197 5.87151 86.5544C3.45981 92.9744 2.20649 99.7443 2.16577 106.571C2.25938 107.288 2.62153 107.947 3.18422 108.425C3.74692 108.903 4.47146 109.167 5.2218 109.167C5.97214 109.167 6.69668 108.903 7.25938 108.425C7.82207 107.947 8.18422 107.288 8.27783 106.571C8.61472 74.1365 38.2125 51.3396 65.3559 37.5316C106.745 16.4954 155.112 8.38673 201.506 7.41369C249.103 6.44064 298.625 12.9276 342.372 31.8324C371.152 44.2039 404.6 64.8695 410.856 97.3042C411.867 105.064 412.157 112.894 411.722 120.704V160.83C411.722 171.209 412.252 181.773 411.722 192.153C410.472 198.611 407.56 204.665 403.252 209.76C396.778 219.866 386.964 227.585 375.387 231.677C362.296 235.661 348.869 230.286 335.586 231.167C325.088 232.185 315.327 236.827 308.106 244.233C299.78 251.925 293.042 260.265 282.406 265.177C271.881 270.193 259.813 271.33 248.477 268.374C237.023 265.177 229.949 256.929 220.901 250.118C216.632 246.765 211.575 244.471 206.171 243.437C200.768 242.403 195.183 242.66 189.907 244.187C170.657 249.423 156.219 266.428 136.102 269.347C110.787 273.054 92.3548 251.184 82.5852 231.677C77.0987 220.788 64.4896 197.296 47.9822 204.987C42.4958 207.536 39.175 212.725 34.8437 216.571C32.8 218.758 30.0237 220.185 26.999 220.602C21.5607 220.927 16.0262 215.367 13.283 211.335C7.84469 203.412 7.45968 193.404 7.50781 184.183C7.50781 171.997 7.84469 159.764 7.94095 147.532C7.94095 133.909 7.94095 120.286 7.94095 106.71C7.73731 106.137 7.35623 105.638 6.84897 105.279C6.34171 104.921 5.73261 104.721 5.10361 104.705C4.4746 104.69 3.85587 104.861 3.33065 105.195C2.80542 105.528 2.3989 106.009 2.16577 106.571Z" fill="#5B5A99"/>
<path d="M209.976 212.077C94.7128 212.077 0.962402 164.722 0.962402 106.571H8.18138C8.18138 160.923 98.7073 205.173 209.976 205.173C321.244 205.173 411.77 160.876 411.77 106.571H418.989C418.989 164.722 325.239 212.077 209.976 212.077Z" fill="#5B5A99"/>
</svg>
