<svg width="26" height="26" viewBox="0 0 26 26" fill="none" xmlns="http://www.w3.org/2000/svg">
<rect width="26" height="26" rx="7" fill="#5B5A99" fill-opacity="0.75"/>
<path d="M13.625 9.3125L13.625 12.7411L15.9003 15.0164C16.1444 15.2605 16.1444 15.6562 15.9003 15.9003C15.6562 16.1444 15.2605 16.1443 15.0164 15.9003L12.5581 13.4419C12.4408 13.3247 12.375 13.1657 12.375 13L12.375 9.3125C12.375 8.96731 12.6548 8.6875 13 8.6875C13.3452 8.6875 13.625 8.96731 13.625 9.3125ZM15.4583 5L10.5417 5C9.23259 5 7.94112 5.46006 6.90778 6.35869L6.90778 5.625C6.90778 5.27981 6.62797 5 6.28278 5C5.93759 5 5.65778 5.27981 5.65778 5.625L5.65778 8.08334C5.65778 8.42853 5.94 8.70834 6.28278 8.70834L8.74113 8.70834C9.08631 8.70834 9.36613 8.42853 9.36613 8.08334C9.36613 7.73816 9.08631 7.45834 8.74113 7.45834L7.55884 7.45834C8.34991 6.69569 9.41775 6.25 10.5417 6.25L15.4583 6.25C17.8248 6.25 19.75 8.17522 19.75 10.5417L19.75 15.4583C19.75 17.8248 17.8248 19.75 15.4583 19.75L10.5417 19.75C8.17522 19.75 6.25 17.8248 6.25 15.4583L6.25 13C6.25 12.6548 5.97019 12.375 5.625 12.375C5.27981 12.375 5 12.6548 5 13L5 15.4583C5 18.514 7.48597 21 10.5417 21L15.4583 21C18.514 21 21 18.514 21 15.4583L21 10.5417C21 7.48597 18.514 5 15.4583 5V5Z" fill="white"/>
</svg>
