<svg width="248" height="32" viewBox="0 0 248 32" fill="none" xmlns="http://www.w3.org/2000/svg">
<path d="M12.2044 8.16679C11.4155 8.11567 10.6251 8.24067 9.89052 8.53274C9.1559 8.8248 8.49544 9.27661 7.95699 9.85545C6.97732 10.9834 6.48104 12.5753 6.48104 14.6378C6.48104 16.7003 7.02888 18.3309 8.11812 19.4524C8.69509 20.0254 9.38502 20.4721 10.144 20.7639C10.903 21.0557 11.7144 21.1864 12.5267 21.1475C13.3777 21.1682 14.2252 21.0327 15.0274 20.7479C15.6896 20.4889 16.3353 20.1897 16.961 19.852C17.3617 20.1808 17.687 20.5918 17.9149 21.0573C18.1518 21.5699 18.2686 22.1298 18.2565 22.6944C18.2565 23.674 17.7108 24.5055 16.6194 25.1887C15.5237 25.8719 13.8673 26.2135 11.6372 26.2135C10.1069 26.2232 8.58444 25.9927 7.12556 25.5303C5.75409 25.1032 4.49027 24.3867 3.41955 23.4291C2.32854 22.4315 1.47415 21.2028 0.918802 19.8327C0.273699 18.1785 -0.0373647 16.4129 0.00357458 14.6378C-0.0290154 12.948 0.271011 11.2683 0.886574 9.69431C1.42743 8.33325 2.24874 7.10128 3.29709 6.07854C4.32449 5.08894 5.55035 4.32882 6.89353 3.84849C8.30029 3.33878 9.78652 3.08343 11.2827 3.09439C13.487 3.09439 15.2057 3.45318 16.4389 4.17075C17.6721 4.88832 18.2758 5.81213 18.25 6.9422C18.2643 7.51619 18.1023 8.08077 17.786 8.55995C17.5011 8.98791 17.1328 9.354 16.7032 9.63631C16.0737 9.2263 15.4069 8.87671 14.7116 8.59218C13.9114 8.28888 13.0598 8.14439 12.2044 8.16679Z" fill="#E3507A"/>
<path d="M26.9834 25.5303C26.6116 25.633 26.2323 25.7063 25.849 25.7494C25.3193 25.8223 24.7853 25.8589 24.2506 25.859C23.7736 25.8621 23.2971 25.8254 22.8262 25.7494C22.4443 25.6922 22.0818 25.5441 21.7692 25.3176C21.4786 25.0868 21.2559 24.7817 21.1246 24.4346C20.9479 23.97 20.8668 23.4746 20.8862 22.9779V12.1886C20.8729 11.6979 20.979 11.2113 21.1955 10.7707C21.4091 10.371 21.7005 10.0181 22.0528 9.73299C22.4893 9.39147 22.968 9.10769 23.4771 8.88866C24.0681 8.63403 24.6753 8.41872 25.2947 8.24414C25.9541 8.04852 26.6259 7.89779 27.3056 7.79297C27.9968 7.68809 28.6948 7.63423 29.3939 7.63184C30.3481 7.57617 31.2979 7.80017 32.1267 8.27637C32.4693 8.51906 32.7425 8.84729 32.9189 9.22837C33.0953 9.60945 33.1688 10.0301 33.1321 10.4484C33.1297 10.7841 33.082 11.118 32.9903 11.441C32.8998 11.7446 32.7789 12.0382 32.6294 12.3175C32.1267 12.3175 31.611 12.3175 31.0825 12.3884C30.554 12.4593 30.0384 12.5109 29.5357 12.6076C29.0329 12.7042 28.556 12.8074 28.1177 12.9105C27.7278 12.9989 27.3478 13.1263 26.9834 13.2908V25.5303Z" fill="#E3507A"/>
<path d="M44.205 26.1426C42.8691 26.1565 41.5396 25.9563 40.267 25.5496C39.1015 25.1795 38.0244 24.574 37.1024 23.7707C36.1821 22.9463 35.4577 21.9268 34.9819 20.7866C34.4405 19.4509 34.1774 18.0188 34.2085 16.5778C34.1734 15.1784 34.4371 13.7875 34.9819 12.498C35.4318 11.4495 36.1039 10.5112 36.9518 9.74778C37.7998 8.98441 38.8033 8.41421 39.8932 8.07657C40.961 7.72984 42.0769 7.55365 43.1996 7.55451C44.3822 7.54083 45.5581 7.73499 46.6736 8.12813C47.6651 8.48764 48.5794 9.03225 49.3677 9.733C50.1186 10.4026 50.7184 11.2243 51.1272 12.1435C51.5574 13.1065 51.7772 14.1503 51.7718 15.205C51.795 15.547 51.7462 15.8901 51.6285 16.2121C51.5109 16.5341 51.3269 16.8277 51.0886 17.0741C50.5461 17.5444 49.8699 17.8329 49.155 17.8991L40.2734 19.2268C40.4056 19.6198 40.6175 19.9812 40.8959 20.2884C41.1743 20.5956 41.5131 20.842 41.8912 21.0122C42.7689 21.4192 43.7275 21.6219 44.6949 21.6051C45.6384 21.6098 46.5778 21.4818 47.4857 21.2249C48.2354 21.028 48.9551 20.7309 49.6255 20.3419C50.0251 20.5938 50.3623 20.9332 50.6116 21.3344C50.8659 21.745 51.002 22.2178 51.0048 22.7008C51.0161 23.2051 50.8793 23.7017 50.6112 24.1291C50.3432 24.5564 49.9556 24.8957 49.4966 25.1049C48.6915 25.5285 47.8193 25.8098 46.9185 25.9363C46.0203 26.0713 45.1133 26.1403 44.205 26.1426ZM43.1996 12.0146C42.6833 12.0023 42.1707 12.1035 41.6978 12.3111C41.3056 12.4792 40.9555 12.7324 40.6731 13.0523C40.4103 13.3445 40.2087 13.6864 40.0801 14.0578C39.9466 14.4225 39.8663 14.8045 39.8416 15.1921L45.9904 14.1802C45.8803 13.6324 45.606 13.1311 45.2041 12.7429C44.938 12.4902 44.6226 12.2951 44.2777 12.1698C43.9329 12.0445 43.5658 11.9917 43.1996 12.0146Z" fill="#E3507A"/>
<path d="M63.0896 7.55449C64.0689 7.55326 65.0435 7.69217 65.9835 7.96699C66.8763 8.21695 67.7123 8.63716 68.4456 9.20447C69.2033 8.71002 70.0195 8.31165 70.8754 8.01855C71.9172 7.68925 73.0057 7.53249 74.098 7.55449C75.0014 7.55288 75.901 7.6721 76.7728 7.90898C77.6173 8.13607 78.4111 8.52097 79.1124 9.04334C79.8146 9.58535 80.3761 10.2883 80.7495 11.0929C81.1941 12.0695 81.4143 13.1332 81.394 14.206V25.5303C81.0221 25.6324 80.6429 25.7056 80.2597 25.7494C79.7279 25.8225 79.1916 25.8591 78.6548 25.859C78.1799 25.8618 77.7057 25.8252 77.2369 25.7494C76.855 25.6922 76.4925 25.5441 76.1798 25.3176C75.8897 25.0863 75.6671 24.7814 75.5353 24.4346C75.3643 23.9687 75.2855 23.4739 75.3033 22.9779V14.3864C75.3297 14.0958 75.2881 13.803 75.1818 13.5312C75.0755 13.2593 74.9075 13.016 74.691 12.8203C74.2125 12.4751 73.6301 12.3044 73.041 12.3369C72.6685 12.3439 72.3009 12.4227 71.9582 12.5689C71.6467 12.6836 71.3553 12.8468 71.0946 13.0523C71.1191 13.1405 71.1321 13.2315 71.1332 13.323V25.5303C70.7476 25.6297 70.3557 25.7029 69.9602 25.7494C69.4434 25.8216 68.9223 25.8582 68.4004 25.859C67.9234 25.862 67.447 25.8254 66.9761 25.7494C66.5942 25.6922 66.2317 25.5441 65.919 25.3176C65.6284 25.0868 65.4057 24.7817 65.2745 24.4346C65.0978 23.97 65.0167 23.4746 65.036 22.9779V14.3864C65.0655 14.0925 65.0221 13.7959 64.9097 13.5227C64.7973 13.2496 64.6193 13.0083 64.3915 12.8203C63.9246 12.4914 63.364 12.3219 62.7931 12.3369C62.4123 12.3275 62.0334 12.3932 61.6781 12.5302C61.4074 12.6432 61.1428 12.7701 60.8853 12.9105V25.5303C60.5135 25.633 60.1342 25.7063 59.7509 25.7494C59.2213 25.8225 58.6872 25.8591 58.1525 25.859C57.6776 25.8621 57.2033 25.8254 56.7346 25.7494C56.3511 25.691 55.9867 25.5431 55.6711 25.3176C55.3805 25.0868 55.1578 24.7817 55.0266 24.4346C54.8556 23.9687 54.7768 23.4739 54.7946 22.9779V12.1177C54.7644 11.5714 54.9089 11.0296 55.2071 10.5709C55.5197 10.1511 55.9011 9.78721 56.335 9.49451C57.2671 8.86611 58.2943 8.3917 59.3771 8.08945C60.5835 7.73846 61.8332 7.55839 63.0896 7.55449Z" fill="#E3507A"/>
<path d="M94.3747 26.1425C93.0388 26.1573 91.7091 25.9571 90.4367 25.5496C89.2699 25.1824 88.1923 24.5766 87.2721 23.7707C86.3479 22.9499 85.6227 21.9293 85.1516 20.7865C84.6071 19.4518 84.3438 18.019 84.3782 16.5778C84.3399 15.1781 84.6037 13.7866 85.1516 12.498C85.6141 11.4256 86.3073 10.4683 87.1819 9.69429C88.0129 8.96531 88.9847 8.41469 90.0371 8.07653C91.1051 7.73032 92.2208 7.55415 93.3435 7.55447C94.5262 7.54026 95.7021 7.73443 96.8175 8.12809C97.8166 8.48395 98.7378 9.02882 99.5309 9.73296C100.284 10.4019 100.886 11.2236 101.297 12.1435C101.727 13.1065 101.947 14.1502 101.941 15.205C101.965 15.547 101.916 15.8901 101.798 16.212C101.681 16.534 101.497 16.8277 101.258 17.0741C100.725 17.5397 100.061 17.828 99.3569 17.8991L90.4754 19.2268C90.6054 19.6208 90.8165 19.9833 91.0952 20.2908C91.3738 20.5983 91.7138 20.844 92.0931 21.0121C92.9704 21.4204 93.9293 21.6232 94.8968 21.6051C95.8382 21.6093 96.7754 21.4813 97.6811 21.2248C98.4312 21.0291 99.1511 20.732 99.821 20.3418C100.21 20.5958 100.537 20.9353 100.775 21.3344C100.97 21.65 101.097 22.0033 101.146 22.3712C101.195 22.7391 101.166 23.1132 101.061 23.4692C100.956 23.8251 100.777 24.1548 100.535 24.4367C100.294 24.7185 99.9954 24.9462 99.6598 25.1048C98.8552 25.5294 97.9828 25.8107 97.0817 25.9363C96.1857 26.0713 95.2809 26.1402 94.3747 26.1425ZM93.3628 12.0146C92.8519 12 92.3438 12.0968 91.874 12.2982C91.4837 12.4697 91.1343 12.7224 90.8492 13.0394C90.5865 13.3316 90.3848 13.6735 90.2562 14.0448C90.1217 14.409 90.0435 14.7915 90.0242 15.1792L96.173 14.1673C96.0576 13.62 95.7816 13.1195 95.3802 12.73C95.1115 12.478 94.7936 12.2843 94.4464 12.1611C94.0992 12.038 93.7303 11.9881 93.3628 12.0146Z" fill="#E3507A"/>
<path d="M111.635 25.4271C111.225 25.524 110.81 25.595 110.391 25.6398C109.838 25.7112 109.28 25.7478 108.722 25.7494C108.233 25.7543 107.745 25.7111 107.265 25.6205C106.882 25.5519 106.519 25.4001 106.202 25.1758C105.903 24.9444 105.679 24.6307 105.557 24.2734C105.397 23.7873 105.323 23.2769 105.338 22.7653V5.82718C105.325 5.61445 105.355 5.40127 105.427 5.20068C105.499 5.00008 105.612 4.8163 105.757 4.66059C106.079 4.36323 106.465 4.14286 106.885 4.01607C107.79 3.70373 108.725 3.48769 109.676 3.37154C110.719 3.2372 111.769 3.17046 112.821 3.17174C116.125 3.17174 118.654 3.87857 120.407 5.29222C121.263 5.9754 121.946 6.84958 122.403 7.84463C122.859 8.83969 123.077 9.92792 123.037 11.022C123.052 12.1092 122.862 13.1896 122.476 14.206C122.116 15.1351 121.55 15.9704 120.82 16.6487C120.024 17.3712 119.08 17.9121 118.055 18.2343C116.803 18.6229 115.498 18.81 114.187 18.7885H111.609L111.635 25.4271ZM113.504 13.8837C114.337 13.9363 115.161 13.6869 115.825 13.1812C116.111 12.9041 116.332 12.5664 116.472 12.1928C116.611 11.8193 116.665 11.4192 116.63 11.022C116.656 10.6358 116.596 10.2486 116.456 9.88782C116.315 9.52703 116.098 9.20138 115.818 8.93378C115.114 8.39839 114.239 8.13726 113.356 8.19902C112.976 8.19902 112.653 8.19902 112.402 8.19902C112.142 8.21072 111.884 8.24087 111.629 8.28926V13.8644L113.504 13.8837Z" fill="#E3507A"/>
<path d="M125.26 3.23619C125.251 2.81037 125.328 2.38709 125.486 1.99172C125.645 1.59635 125.881 1.23701 126.182 0.935236C126.847 0.333324 127.712 0 128.609 0C129.505 0 130.37 0.333324 131.035 0.935236C131.623 1.55735 131.95 2.38057 131.95 3.23619C131.95 4.0918 131.623 4.91502 131.035 5.53714C130.37 6.13905 129.505 6.47237 128.609 6.47237C127.712 6.47237 126.847 6.13905 126.182 5.53714C125.88 5.23603 125.643 4.87681 125.485 4.48128C125.326 4.08575 125.25 3.66215 125.26 3.23619ZM131.667 25.5303C131.403 25.5818 131.022 25.6463 130.494 25.7301C129.978 25.8148 129.457 25.8579 128.934 25.859C128.457 25.862 127.981 25.8254 127.51 25.7494C127.128 25.6922 126.765 25.5441 126.453 25.3176C126.163 25.0863 125.94 24.7814 125.808 24.4346C125.637 23.9687 125.558 23.4739 125.576 22.9779V8.34081L126.743 8.14746C127.26 8.06242 127.784 8.01931 128.309 8.01855C128.784 8.01544 129.258 8.05208 129.727 8.12812C130.111 8.18359 130.476 8.3318 130.79 8.55995C131.082 8.78959 131.305 9.09506 131.435 9.44295C131.608 9.90834 131.689 10.4031 131.673 10.8996L131.667 25.5303Z" fill="#E3507A"/>
<path d="M144.822 26.1426C143.486 26.1565 142.156 25.9563 140.884 25.5496C139.717 25.1809 138.64 24.5753 137.719 23.7707C136.799 22.9463 136.074 21.9268 135.598 20.7866C135.057 19.4509 134.794 18.0188 134.825 16.5778C134.79 15.1784 135.054 13.7875 135.598 12.498C136.048 11.4495 136.72 10.5112 137.568 9.74778C138.416 8.98441 139.42 8.41421 140.51 8.07658C141.578 7.72984 142.693 7.55366 143.816 7.55451C144.997 7.54079 146.17 7.73496 147.284 8.12814C148.276 8.48679 149.19 9.03149 149.978 9.733C150.729 10.4026 151.329 11.2243 151.737 12.1435C152.168 13.1065 152.387 14.1503 152.382 15.205C152.404 15.5469 152.354 15.8895 152.236 16.2113C152.119 16.533 151.936 16.8268 151.699 17.0741C151.156 17.5433 150.48 17.8317 149.765 17.8991L140.884 19.2268C141.015 19.6203 141.226 19.9823 141.505 20.2896C141.783 20.597 142.123 20.843 142.501 21.0122C143.379 21.4198 144.338 21.6226 145.305 21.6051C146.249 21.6098 147.188 21.4818 148.096 21.2249C148.845 21.0267 149.565 20.7298 150.236 20.3419C150.631 20.6011 150.961 20.9472 151.202 21.3538C151.4 21.6688 151.528 22.0223 151.578 22.3906C151.629 22.759 151.6 23.1339 151.495 23.4904C151.39 23.8469 151.209 24.177 150.967 24.4586C150.724 24.7403 150.424 24.9672 150.087 25.1242C149.283 25.5485 148.41 25.8299 147.509 25.9557C146.619 26.083 145.721 26.1454 144.822 26.1426ZM143.816 12.0146C143.303 12.0002 142.793 12.0969 142.321 12.2982C141.931 12.4697 141.581 12.7224 141.296 13.0394C141.036 13.3332 140.834 13.6746 140.703 14.0449C140.575 14.4107 140.497 14.7923 140.471 15.1792L146.62 14.1673C146.51 13.618 146.233 13.1161 145.827 12.73C145.556 12.4736 145.234 12.2774 144.882 12.1541C144.53 12.0308 144.156 11.9833 143.784 12.0146H143.816Z" fill="#E3507A"/>
<path d="M169.133 16.9001C168.08 16.5478 167.122 16.1825 166.258 15.8044C165.452 15.4698 164.7 15.0157 164.028 14.4573C163.412 13.9407 162.915 13.2964 162.572 12.5689C162.2 11.7251 162.022 10.8091 162.05 9.88768C162.02 8.94358 162.22 8.00638 162.63 7.15579C163.041 6.3052 163.651 5.56639 164.409 5.00219C165.973 3.77759 168.173 3.16529 171.009 3.16529C171.971 3.16052 172.932 3.23164 173.883 3.37799C174.67 3.48652 175.438 3.70342 176.165 4.02251C176.765 4.28952 177.29 4.70145 177.692 5.22133C178.053 5.68956 178.242 6.26753 178.227 6.85842C178.245 7.42232 178.095 7.97885 177.795 8.45683C177.519 8.89331 177.168 9.27737 176.758 9.59119C176.094 9.19771 175.378 8.90042 174.631 8.7082C173.684 8.44979 172.706 8.32399 171.724 8.33438C170.906 8.27773 170.086 8.43313 169.346 8.78554C169.128 8.88486 168.941 9.04302 168.808 9.24226C168.675 9.4415 168.6 9.67393 168.592 9.91346C168.589 10.0884 168.631 10.261 168.713 10.4154C168.796 10.5698 168.916 10.7009 169.062 10.7965C169.492 11.0829 169.964 11.3003 170.461 11.441L172.394 12.0533C174.304 12.5827 176.076 13.5194 177.589 14.7989C178.201 15.3823 178.68 16.0907 178.994 16.8759C179.308 17.6612 179.448 18.5048 179.407 19.3493C179.429 20.3059 179.222 21.2541 178.803 22.1142C178.383 22.9743 177.764 23.7214 176.996 24.2928C175.389 25.556 173.026 26.1855 169.906 26.1812C168.875 26.1876 167.846 26.097 166.832 25.9105C165.973 25.7634 165.138 25.4988 164.351 25.1242C163.707 24.8273 163.14 24.3862 162.694 23.8352C162.302 23.3259 162.093 22.6991 162.101 22.0563C162.086 21.4073 162.303 20.7742 162.714 20.271C163.082 19.8135 163.535 19.4306 164.048 19.143C164.798 19.7149 165.627 20.1751 166.51 20.5094C167.525 20.8995 168.606 21.0941 169.694 21.0831C170.557 21.1587 171.422 20.9698 172.175 20.5417C172.393 20.4037 172.572 20.2135 172.697 19.9883C172.822 19.7631 172.889 19.5101 172.891 19.2526C172.899 19.0357 172.851 18.8203 172.75 18.628C172.65 18.4356 172.5 18.2732 172.317 18.1569C171.808 17.8484 171.265 17.5997 170.699 17.4157L169.133 16.9001Z" fill="#E3507A"/>
<path d="M191.872 25.0275C191.469 25.3516 191.004 25.5906 190.505 25.73C189.84 25.9231 189.149 26.0144 188.456 26.0007C187.578 26.024 186.704 25.8842 185.878 25.5882C185.263 25.4021 184.746 24.9805 184.44 24.4152C184.067 23.5288 183.761 22.6152 183.525 21.6824C183.177 20.4364 182.833 19.07 182.494 17.5833C182.159 16.1009 181.849 14.5862 181.547 13.0716C181.244 11.557 181.012 10.1841 180.844 9.01109C181.71 8.17901 182.866 7.71668 184.067 7.72205C184.797 7.68821 185.52 7.88188 186.136 8.27634C186.43 8.50869 186.671 8.80159 186.842 9.1352C187.013 9.4688 187.111 9.83532 187.128 10.2099C187.367 12.0275 187.566 13.5357 187.74 14.7216C187.914 15.9075 188.043 16.8807 188.153 17.6348C188.263 18.3889 188.34 18.9625 188.404 19.3621C188.469 19.7617 188.514 20.0711 188.565 20.3096H188.707C188.778 19.9293 188.907 19.3686 189.087 18.6403C189.268 17.912 189.474 17.0741 189.732 16.1395C189.99 15.205 190.228 14.206 190.493 13.1038C190.757 12.0017 191.015 10.9253 191.279 9.84898C191.731 9.59606 192.209 9.39086 192.703 9.23668C193.27 9.07916 193.856 9.00533 194.443 9.01754C195.183 8.99963 195.918 9.13571 196.603 9.41714C196.875 9.52116 197.12 9.68533 197.32 9.89738C197.519 10.1094 197.669 10.3639 197.756 10.6417C198.04 11.6902 198.315 12.715 198.581 13.7161C198.846 14.7087 199.084 15.6497 199.303 16.4811C199.522 17.3126 199.709 18.086 199.877 18.7498C200.044 19.4137 200.16 19.9293 200.238 20.3096H200.418C200.676 18.4663 200.934 16.5456 201.185 14.5604C201.437 12.5753 201.675 10.5451 201.888 8.48259C202.312 8.22208 202.772 8.02655 203.254 7.90251C203.725 7.78793 204.207 7.72951 204.691 7.72849C205.425 7.69788 206.151 7.88394 206.78 8.26345C207.068 8.47608 207.296 8.76042 207.441 9.08828C207.585 9.41614 207.642 9.77613 207.605 10.1326C207.586 10.7116 207.528 11.2888 207.431 11.8599C207.308 12.6269 207.153 13.4905 206.96 14.438C206.767 15.3854 206.548 16.4038 206.316 17.4608C206.084 18.5178 205.813 19.5297 205.562 20.5158C205.31 21.502 205.065 22.385 204.84 23.1777C204.614 23.9705 204.414 24.5763 204.247 25.0082C203.79 25.3541 203.261 25.5941 202.7 25.7107C201.971 25.8953 201.222 25.9863 200.47 25.9814C198.459 25.9814 197.273 25.4787 196.912 24.4732C196.764 24.0414 196.59 23.4935 196.371 22.8361C196.151 22.1787 195.926 21.4504 195.687 20.6576C195.449 19.8649 195.217 19.0463 195.004 18.1956C194.792 17.3448 194.611 16.5262 194.463 15.7335C194.295 16.5714 194.095 17.4415 193.851 18.3116C193.606 19.1817 193.367 20.0905 193.116 20.9412C192.864 21.792 192.632 22.5719 192.413 23.2744C192.194 23.9769 192.02 24.5957 191.872 25.0275Z" fill="#E3507A"/>
<path d="M217.575 7.55449C218.767 7.54153 219.955 7.67355 221.114 7.94765C222.095 8.1723 223.025 8.58131 223.853 9.15291C224.595 9.68013 225.193 10.3847 225.593 11.2025C226.02 12.1199 226.23 13.1235 226.206 14.1351V22.1916C226.227 22.7479 226.041 23.2924 225.684 23.7191C225.325 24.1211 224.908 24.4666 224.446 24.7439C222.886 25.6763 220.693 26.1425 217.866 26.1425C216.711 26.1563 215.558 26.0373 214.43 25.7881C213.498 25.5821 212.608 25.2157 211.801 24.7053C211.092 24.2477 210.511 23.6179 210.112 22.8748C209.707 22.0767 209.503 21.1916 209.519 20.2967C209.473 19.5917 209.582 18.8852 209.836 18.2263C210.091 17.5674 210.487 16.9719 210.995 16.4811C211.975 15.5981 213.502 15.0439 215.558 14.8312L220.27 14.3284V14.0771C220.286 13.7645 220.208 13.4542 220.044 13.1872C219.881 12.9203 219.64 12.7091 219.354 12.5818C218.517 12.2407 217.615 12.0867 216.712 12.1306C215.817 12.129 214.924 12.2263 214.05 12.4206C213.252 12.5939 212.469 12.8332 211.71 13.1361C211.366 12.8821 211.095 12.542 210.924 12.1499C210.71 11.7195 210.6 11.2449 210.602 10.7642C210.574 10.2315 210.731 9.70555 211.046 9.27537C211.423 8.84887 211.899 8.52134 212.432 8.32147C213.227 8.03252 214.054 7.83993 214.894 7.74785C215.783 7.62609 216.679 7.5615 217.575 7.55449ZM217.866 21.6824C218.317 21.6793 218.768 21.6383 219.213 21.56C219.595 21.5105 219.966 21.3949 220.308 21.2184V18.3438L217.73 18.5565C217.155 18.5782 216.592 18.7256 216.08 18.9883C215.881 19.0871 215.714 19.241 215.6 19.4319C215.486 19.6227 215.429 19.8424 215.436 20.0647C215.43 20.2905 215.478 20.5144 215.576 20.7182C215.673 20.922 215.817 21.1 215.996 21.2377C216.556 21.5823 217.211 21.7382 217.866 21.6824Z" fill="#E3507A"/>
<path d="M237.962 7.55449C239.318 7.54346 240.668 7.73019 241.971 8.10878C243.141 8.44507 244.227 9.02737 245.155 9.81677C246.062 10.6097 246.776 11.5995 247.243 12.7107C247.775 14.0306 248.031 15.4453 247.997 16.8679C248.025 18.2384 247.806 19.6027 247.352 20.8961C246.959 21.9836 246.332 22.9716 245.516 23.79C244.709 24.5798 243.732 25.175 242.66 25.5303C241.46 25.9304 240.2 26.1265 238.935 26.1103C237.957 26.1204 236.984 25.9612 236.06 25.6398V31.6081C235.682 31.7141 235.296 31.7937 234.907 31.8466C234.372 31.9298 233.831 31.9708 233.289 31.969C232.814 31.9754 232.339 31.9387 231.871 31.8595C231.488 31.8033 231.124 31.6575 230.808 31.4341C230.512 31.2079 230.288 30.9013 230.163 30.5511C230.001 30.0833 229.926 29.5894 229.944 29.0945V11.8341C229.921 11.2764 230.064 10.7244 230.356 10.2486C230.665 9.81187 231.049 9.43417 231.491 9.13358C232.348 8.60662 233.283 8.21936 234.262 7.98633C235.472 7.68438 236.715 7.53924 237.962 7.55449ZM238.039 21.2893C240.51 21.2893 241.743 19.8155 241.739 16.8679C241.739 15.3339 241.434 14.1952 240.823 13.4519C240.499 13.0746 240.092 12.7776 239.633 12.5842C239.175 12.3907 238.678 12.3061 238.181 12.3369C237.767 12.3301 237.354 12.3843 236.956 12.498C236.633 12.5918 236.32 12.717 236.022 12.8718V20.7866C236.322 20.9339 236.635 21.0546 236.956 21.1475C237.309 21.2457 237.673 21.2935 238.039 21.2893Z" fill="#E3507A"/>
</svg>
